<?xml version="1.0" encoding="UTF-8" standalone="no"?>
<!-- Created with Inkscape (http://www.inkscape.org/) -->

<svg
   version="1.1"
   id="svg69"
   width="640"
   height="640"
   viewBox="0 0 640 640"
   sodipodi:docname="3.svg"
   inkscape:version="1.1.2 (0a00cf5339, 2022-02-04)"
   inkscape:export-filename="/home/alumnat/AO/UD5/UD5.PNG/3.jpg"
   inkscape:export-xdpi="96"
   inkscape:export-ydpi="96"
   xmlns:inkscape="http://www.inkscape.org/namespaces/inkscape"
   xmlns:sodipodi="http://sodipodi.sourceforge.net/DTD/sodipodi-0.dtd"
   xmlns="http://www.w3.org/2000/svg"
   xmlns:svg="http://www.w3.org/2000/svg">
  <defs
     id="defs73">
    <inkscape:path-effect
       effect="bspline"
       id="path-effect726"
       is_visible="true"
       lpeversion="1"
       weight="33.333333"
       steps="2"
       helper_size="0"
       apply_no_weight="true"
       apply_with_weight="true"
       only_selected="false" />
    <inkscape:path-effect
       effect="bspline"
       id="path-effect722"
       is_visible="true"
       lpeversion="1"
       weight="33.333333"
       steps="2"
       helper_size="0"
       apply_no_weight="true"
       apply_with_weight="true"
       only_selected="false" />
  </defs>
  <sodipodi:namedview
     id="namedview71"
     pagecolor="#ffffff"
     bordercolor="#666666"
     borderopacity="1.0"
     inkscape:pageshadow="2"
     inkscape:pageopacity="0.0"
     inkscape:pagecheckerboard="0"
     showgrid="false"
     inkscape:zoom="0.5469029"
     inkscape:cx="-76.796082"
     inkscape:cy="330.0403"
     inkscape:window-width="1294"
     inkscape:window-height="704"
     inkscape:window-x="0"
     inkscape:window-y="0"
     inkscape:window-maximized="1"
     inkscape:current-layer="g75"
     inkscape:object-paths="true"
     inkscape:snap-nodes="false" />
  <g
     inkscape:groupmode="layer"
     inkscape:label="Image"
     id="g75">
    <path
       style="fill:none;stroke:#000000;stroke-width:1px;stroke-linecap:butt;stroke-linejoin:miter;stroke-opacity:1"
       d="m 249.61627,243.06455 c 9.67633,-1.90563 31.15916,-11.35158 48.3009,-16.53161 17.14174,-5.18003 29.94143,-6.09426 43.8067,-10.05669 13.86526,-3.96244 28.79575,-10.97266 37.25068,-16.60959 8.45492,-5.63693 10.43454,-9.90091 9.56403,-15.52914 -0.87052,-5.62823 -4.59183,-12.62096 -12.28553,-12.39308 -7.6937,0.22788 -19.35872,7.67786 -35.40144,12.69756 -16.04273,5.0197 -36.46271,7.6088 -50.10067,10.42649 -13.63796,2.8177 -20.49278,5.86389 -26.25824,11.07036 -5.76546,5.20648 -10.44059,12.57253 -13.64073,17.52586 -3.20015,4.95332 -4.925,7.49349 -6.85323,11.58212 -1.92822,4.08863 -4.0588,9.72336 5.61753,7.81772 z"
       id="path720"
       inkscape:path-effect="#path-effect722"
       inkscape:original-d="m 237.8093,250.60507 c 21.48383,-9.44494 42.96666,-18.89089 64.44849,-28.33784 12.8012,-0.91326 25.60089,-1.82748 38.39983,-2.74272 14.93208,-7.00949 29.86257,-14.01971 44.79236,-21.03107 1.9807,-4.26315 3.96032,-8.52713 5.93898,-12.7922 -3.72053,-6.99215 -7.44184,-13.98488 -11.16438,-20.97903 -11.66448,7.45128 -23.3295,14.90126 -34.99576,22.35039 -20.4198,2.5902 -40.83978,5.17931 -61.26116,7.76746 -6.85415,3.04733 -13.70897,6.09352 -20.56503,9.13882 -4.67422,7.36719 -9.34936,14.73324 -14.02557,22.09842 -1.72409,2.54151 -3.44894,5.08168 -5.17523,7.62149 -2.13011,5.63712 -4.26069,11.27185 -6.39253,16.90628 z"
       sodipodi:nodetypes="cccccccccccc" />
    <path
       style="fill:none;stroke:#000000;stroke-width:1px;stroke-linecap:butt;stroke-linejoin:miter;stroke-opacity:1"
       d="m 234.19918,249.55366 9.37279,-0.72727 48.16225,2.50568 49.69728,4.12121 6.86806,-0.32323 9.21307,-4.84975 c 0,0 13.25442,-8.96969 13.25442,-9.3731 0,-0.40341 16.07828,-17.21086 16.07828,-17.21086 l 2.1834,-9.375 -6.7882,-13.2519 2.74619,-4.44398 4.62811,-6.34298 c 0,0 -0.71742,-3.68778 0.0103,-3.76827 0.72775,-0.0805 9.57528,0.16193 9.57528,0.16193 l 4.40531,5.13163 37.19453,38.60547 c 0,0 6.79095,0.33057 7.41926,0.10223 0.62832,-0.22833 29.84089,-22.27074 30.75379,-22.27074 0.9129,0 18.39638,-1.48787 21.25383,-0.11517 2.85744,1.3727 18.28433,12.4574 18.28433,12.4574 l -0.17121,290.15925 -12.77147,20.84849 -7.27083,12.2803 -14.05934,11.31439 -18.90909,14.2197 -11.47728,0.16288 -2.91098,5.81818 -6.62058,2.10228 -11.47664,-0.48485 -6.24262,7.75544 c 0,0 -0.47319,2.27667 -7.32284,2.28203 -6.84965,0.005 -28.34498,0.91067 -28.34498,0.91067 l -14.17249,-1.36065 -15.5385,-1.37136 -26.04867,-1.83205 -27.88965,-12.80291 c 0,0 -12.81363,-18.74905 -13.26003,-26.05582 -0.44641,-7.30677 -7.76032,-18.27764 -7.76032,-18.27764 0,0 8.88313,-16.96362 11.14702,-18.41817 2.26388,-1.45454 41.69507,-52.20328 41.69507,-52.20328 l 12.2822,-29.41414 9.53851,-31.83965 c 0,0 4.68813,-15.18813 6.78788,-16.32071 2.09974,-1.13257 -0.97223,-63.0303 -0.97223,-63.0303 l -0.32196,-4.85227 -37.6572,-15.99621 c 0,0 -48.80682,-11.64016 -50.58397,-11.96213 -1.77714,-0.32196 -26.50884,-3.39393 -26.50884,-3.39393 l -10.3428,-0.48485 -8.88826,3.55682 -5.0101,4.52651 -4.36048,7.5947 -4.62531,7.73863 -0.88889,12.76705 0.48295,19.55555 -4.04072,8.00127 -4.36021,-2.61714 -3.83463,-53.65619 11.42263,-13.71359 3.2052,-15.54563 z"
       id="path730" />
    <path
       style="fill:none;stroke:#000000;stroke-width:1px;stroke-linecap:butt;stroke-linejoin:miter;stroke-opacity:1"
       d="m 202.38005,376.44066 14.38131,16.32575 14.22665,9.37122 c 0,0 13.08333,4.52651 15.02525,4.52651 1.94192,0 30.38952,0.64205 31.51957,0.64394 1.13005,0.002 6.45959,-3.71717 6.45959,-3.71717 l 1.13384,-12.76515 2.42109,-13.57702 3.27888,-13.73514 3.2052,-17.82766 -4.5712,39.31942 -5.02831,26.0451 -6.86751,1.37136 -3.24448,45.43696 c 0,0 -5.71131,14.85728 -3.42482,15.08495 2.28649,0.22767 59.95547,-6.72186 59.95547,-6.72186 l 8.25545,-10.58803 12.2822,-29.41414 16.66303,-49.06338 -1.63083,-66.97955 -37.6572,-15.99621 -77.09281,-15.35606 -10.3428,-0.48485 -13.89836,8.08333 -8.98579,15.33333 -0.88889,12.76705 0.48295,19.55555 -4.04072,8.00127 -4.9886,16.5827 z"
       id="path732" />
    <path
       style="fill:none;stroke:#000000;stroke-width:1px;stroke-linecap:butt;stroke-linejoin:miter;stroke-opacity:1"
       d="m 382.24053,201.06944 -13.07639,8.58586 -10.34343,5.00758 -4.48432,0.53998 c 0,0 0.35455,-0.66088 -1.19994,-1.31511 -1.5545,-0.65423 -5.82694,2.62888 -5.82694,2.62888 l -4.85689,1.31377 -6.39968,2.97173 -3.08533,0.74326 -15.45624,0.19773 -6.88503,-0.59815 -5.72594,3.43689 -5.08146,1.38844 -14.87165,2.89712 -16.32324,6.06124 -3.70957,3.33078 -1.46214,3.69953 3.88036,4.11931 3.06764,4.14388 71.03116,5.23112 6.86806,-0.32323 9.21307,-4.84975 12.5576,-8.75564 16.7751,-17.82832 2.1834,-9.375 z"
       id="path1196" />
    <path
       style="fill:none;stroke:#000000;stroke-width:1px;stroke-linecap:butt;stroke-linejoin:miter;stroke-opacity:1"
       d="m 238.48359,247.12942 5.49368,0.0814 5.639,-4.14631 8.88454,-2.54567 6.41367,-2.25944 3.70957,-3.33078 16.32324,-6.06124 c 0,0 19.95311,-4.28556 19.95311,-4.28556 l 5.72594,-3.43689 22.34127,0.40042 3.08533,-0.74326 11.25657,-4.2855 c 0,0 5.71802,-4.64931 7.02688,-1.31377 1.30886,3.33554 4.48432,-0.53998 4.48432,-0.53998 l 10.34343,-5.00758 13.07639,-8.58586 7.3743,-10.78696 -9.67479,-17.83812 -3.61881,-0.50175 -21.95949,10.54098 -21.19165,4.31407 -36.26226,4.00979 -13.69817,-0.16271 -20.33825,12.91273 -12.45829,11.8869 -8.92196,16.35108 -4.19949,13.25 z"
       id="path1198" />
    <path
       style="fill:none;stroke:#000000;stroke-width:1px;stroke-linecap:butt;stroke-linejoin:miter;stroke-opacity:1"
       d="m 209.6366,339.46304 -22.53409,-3.33822 -13.25691,-7.08714 -5.37384,-8.57099 -3.19671,-14.62694 4.22612,-16.91431 6.40325,-14.39927 9.36738,-8.11298 6.51708,-24.34161 2.28113,-3.9989 c 0,0 5.94568,-1.14414 6.63091,-1.60082 0.68523,-0.45667 13.93992,-24.11394 13.93992,-24.11394 0,0 2.74093,-3.77124 4.79975,-4.34175 2.05882,-0.5705 38.68957,0.0651 38.68957,0.0651 l -7.71704,7.3631 -8.92196,16.35108 -4.19949,13.25 -3.09249,4.50825 -13.76938,6.99397 -3.2052,15.54563 -11.42263,13.71359 z"
       id="path1200" />
    <path
       style="fill:none;stroke:#000000;stroke-width:1px;stroke-linecap:butt;stroke-linejoin:miter;stroke-opacity:1"
       d="m 240.35559,544.22848 c 0,0 15.88937,9.36783 17.60134,10.39769 1.71197,1.02986 35.65354,0.68568 35.65354,0.68568 l 3.98282,-0.9085 9.691,16.1854 27.88965,12.80291 55.75966,4.56406 -7.19244,9.7766 2.26768,25.21213 -5.17803,2.90909 0.33459,13.25 -195.87752,0.64394 1.93182,-13.25 -2.57576,-8.40152 z"
       id="path1824" />
    <path
       style="fill:none;stroke:#000000;stroke-width:1px;stroke-linecap:butt;stroke-linejoin:miter;stroke-opacity:1"
       d="m 240.35559,544.22848 6.69271,-15.48164 40.62652,-0.22918 5.98828,13.56477 2.52666,9.39445 1.40353,2.92647 -39.2131,0.35414 z"
       id="path1826" />
    <path
       style="fill:none;stroke:#000000;stroke-width:1px;stroke-linecap:butt;stroke-linejoin:miter;stroke-opacity:1"
       d="m 247.0483,528.74684 15.59277,-26.23141 -2.39988,-7.4273 10.53154,-22.17326 60.07785,-6.693 -34.10529,42.24918 -10.48135,17.78424 1.41088,2.26237 z"
       id="path1828" />
    <path
       style="fill:none;stroke:#000000;stroke-width:1px;stroke-linecap:butt;stroke-linejoin:miter;stroke-opacity:1"
       d="m 213.73253,389.32806 -0.13752,22.00401 14.30082,7.0303 9.29356,3.96023 35.79893,0.40341 -0.2365,-15.51199 -27.67064,-0.68487 -14.09317,-4.39152 -14.22665,-9.37122 z"
       id="path1832" />
    <path
       style="fill:none;stroke:#000000;stroke-width:1px;stroke-linecap:butt;stroke-linejoin:miter;stroke-opacity:1"
       d="m 213.59501,411.33207 -0.7137,42.36364 -5.17171,10.34091 -6.78788,13.41414 -10.01452,23.91919 -10.50442,19.55556 -15.0322,39.27272 -17.13131,33.78031 -5.8226,8.88636 -2.2601,4.36616 2.75,6.625 c 0,0 2.10606,2.75 4.84974,5.98106 2.74369,3.23106 7.27147,10.01894 7.27147,10.01894 l 3.39394,5.49243 10.82576,1.61742 8.88825,0.80682 4.39246,-0.86415 1.1428,-2.74272 -4.56718,-1.48653 -2.97396,-1.82669 0.57364,-5.0301 c 0,0 0.56693,-3.65607 1.71241,-5.02743 1.14547,-1.37135 5.36937,-6.39878 5.36937,-6.39878 l 21.25829,-30.28506 15.99829,-22.85687 14.85772,-17.14109 9.48613,-17.14198 14.62782,-24.79874 0.22767,-7.08446 3.08288,-17.37143 4.91403,-23.54255 4.34442,-12.91363 0.4058,-18.53451 -35.79893,-0.40341 z"
       id="path1836" />
    <path
       style="fill:none;stroke:#000000;stroke-width:1px;stroke-linecap:butt;stroke-linejoin:miter;stroke-opacity:1"
       d="m 262.5625,199.77652 -8.40467,-5.17235 c 0,0 -6.46623,-6.78883 -6.94918,-7.27273 -0.48296,-0.4839 -4.36332,-8.72822 -4.6048,-9.21212 -0.24148,-0.4839 -3.63573,-8.80682 -3.63573,-8.80682 0,0 7.02809,2.58333 8.07954,3.23106 1.05146,0.64773 20.36143,10.10038 20.68656,10.18182 0.32512,0.0814 13.95943,8.88183 13.95943,8.88183 l -16.38163,10.40068 z"
       id="path1838" />
    <path
       style="fill:none;stroke:#000000;stroke-width:1px;stroke-linecap:butt;stroke-linejoin:miter;stroke-opacity:1"
       d="m 238.96812,169.3125 -31.3805,-24.35025 -18.51691,-20.11683 -13.94482,-19.88113 c 0,0 -7.31749,-15.770626 -7.31302,-17.141985 0.004,-1.371358 0.68211,-18.288352 0.68211,-18.288352 l 6.85857,-6.626448 7.76925,-0.916025 c 0,0 13.71805,0.452656 15.77598,0.685679 2.05793,0.233024 12.34044,-2.059716 14.62693,-2.057037 2.28649,0.0027 13.48057,-0.910668 13.48057,-0.910668 l 11.886,-23.313097 12.57793,-15.31529 9.82807,-4.569409 10.73784,-2.287384 13.94483,1.601704 c 0,0 7.31302,1.599026 12.11366,2.742718 4.80065,1.143691 9.13972,3.420361 12.34134,4.339064 3.20162,0.918703 17.14198,13.488597 17.14198,13.488597 l 14.62783,11.881537 2.96859,1.83205 2.05883,45.024488 27.65662,23.082748 9.60041,11.88868 3.87926,15.30994 -1.366,17.37232 -7.06343,9.6562 -3.61881,-0.50175 -21.95949,10.54098 -30.25277,5.31603 -21.12697,2.33616 -19.77234,0.50896 -15.2524,-7.79871 z"
       id="path1840" />
    <path
       style="fill:none;stroke:#000000;stroke-width:1px;stroke-linecap:butt;stroke-linejoin:miter;stroke-opacity:1"
       d="m 254.20757,39.824754 6.63091,16.456303 10.73784,11.881537 c 0,0 12.79756,11.428881 16.45899,12.572573 3.66142,1.143691 13.48859,3.653385 13.48859,3.653385 l 16.9045,-0.224989 17.15091,-8.228151 2.049,-5.71578 -0.22767,-12.342228 -3.6516,-9.59951 -14.85549,-12.111882 -13.94482,-7.312127 c 0,0 -7.08625,-6.406816 -19.88292,-6.631804 -12.79666,-0.224989 -18.28924,-0.224989 -18.28924,-0.224989 l -10.51018,8.45314 z"
       id="path1842" />
    <path
       style="fill:none;stroke:#000000;stroke-width:1px;stroke-linecap:butt;stroke-linejoin:miter;stroke-opacity:1"
       d="m 227.00628,59.709454 2.06328,12.569001 5.71043,16.686649 c 0,0 6.85322,9.369165 9.37184,10.740524 2.51862,1.371362 17.82498,15.540282 17.82498,15.540282 l 15.31976,5.94076 21.47658,4.79976 16.91432,2.05704 15.09208,-3.4284 c 0,0 5.47294,-5.48276 6.84876,-7.76746 1.37582,-2.2847 4.58191,-7.77282 5.26491,-9.82986 0.683,-2.05703 4.33996,-11.883318 4.33996,-11.883318 l 18.15196,15.149968 -7.40876,16.16093 -6.17558,11.43156 -5.25509,7.76747 c 0,0 -13.70733,8.22279 -15.53849,8.68348 -1.83116,0.46069 -9.14418,2.28203 -11.65833,2.74272 -2.51416,0.46069 -21.03107,1.6017 -21.03107,1.6017 0,0 -3.66589,-0.683 -9.14418,-1.82669 -5.47829,-1.14369 -13.70734,-4.11408 -13.70734,-4.11408 l -11.43156,-6.17111 -8.67902,-5.71578 c 0,0 -13.95018,-7.08446 -16.23131,-10.05484 -2.28114,-2.97039 -11.43067,-15.77063 -11.43067,-15.77063 l -8.90758,-16.225956 -4.11675,-17.602673 -2.9695,-15.084945 -0.94143,-5.163134 z"
       id="path1844" />
    <path
       style="fill:#ffd5d5;stroke-width:1.29293"
       d="m 166.38008,635.44438 c -3.77984,-0.5504 -7.00593,-1.20509 -7.16907,-1.45487 -0.16315,-0.24978 -3.8089,-5.39961 -8.10166,-11.44406 -4.29277,-6.04444 -8.19234,-12.05145 -8.66572,-13.34891 -0.57579,-1.57814 1.02041,-5.4578 4.82218,-11.72058 9.32452,-15.36062 18.47571,-34.56443 26.10746,-54.78659 3.95479,-10.47915 9.80827,-23.99846 13.00774,-30.04291 3.19947,-6.04444 7.82032,-15.82409 10.26855,-21.73255 2.44823,-5.90847 7.20363,-16.09028 10.56755,-22.62627 l 6.11622,-11.8836 0.64647,-20.25928 c 0.35555,-11.14261 0.99347,-20.60477 1.4176,-21.02703 0.42413,-0.42226 5.25636,1.27623 10.7383,3.77443 9.87596,4.50062 10.13211,4.54218 27.99654,4.54218 h 18.02938 v 6.18288 c 0,3.40059 -0.8964,9.36422 -1.99199,13.25253 -3.28981,11.67564 -10.9173,49.42012 -10.92766,54.07527 -0.007,3.01086 -2.52168,8.55136 -8.21654,18.10101 -4.5138,7.56913 -10.11153,17.15603 -12.43941,21.30422 -2.32789,4.14819 -7.57342,11.42093 -11.65674,16.16162 -4.08333,4.74069 -15.15153,19.67399 -24.59601,33.1851 -9.44448,13.51111 -19.22484,27.11388 -21.73414,30.22838 -5.71718,7.09606 -6.57724,15.2653 -1.85932,17.66065 5.96456,3.02828 0.90217,3.78946 -12.35973,1.85838 z"
       id="path2191" />
    <path
       style="fill:#ffd5d5;stroke-width:1.29293"
       d="m 259.17728,196.1218 c -3.19768,-2.02791 -7.25708,-5.40261 -9.02088,-7.49934 -3.62919,-4.31423 -8.49196,-14.39465 -7.44769,-15.43892 0.83262,-0.83261 28.81348,12.73975 33.22603,16.11658 l 3.12665,2.39276 -5.48769,3.46422 c -7.92045,4.99996 -8.02267,5.00681 -14.39642,0.9647 z"
       id="path2230" />
    <path
       style="fill:#aa4400;stroke-width:1.29293"
       d="m 367.83838,584.88608 c -33.36382,-2.98956 -33.52199,-3.02206 -47.16053,-9.6907 -12.43994,-6.08257 -13.07815,-6.6049 -17.9741,-14.71053 -2.79191,-4.62222 -5.90843,-11.57237 -6.92561,-15.44475 -1.01717,-3.87239 -3.21952,-9.7445 -4.8941,-13.04912 l -3.04469,-6.00842 4.7672,-7.79973 c 2.62195,-4.28987 14.32737,-19.79002 26.01204,-34.4448 24.36424,-30.55737 25.86813,-33.43817 41.54618,-79.58444 l 8.96654,-26.39186 -0.13691,-22.73946 c -0.0752,-12.5067 -0.51166,-27.96403 -0.96969,-34.34964 l -0.83279,-11.6102 -18.74748,-7.92546 c -14.26366,-6.02993 -24.77742,-9.3626 -43.95959,-13.93441 -23.91215,-5.69914 -49.07743,-9.86923 -59.55788,-9.86923 -10.28638,0 -17.57193,5.54164 -24.39482,18.55554 -3.78297,7.21558 -3.96861,8.29238 -4.01231,23.27273 -0.0301,10.30483 -0.61767,16.73772 -1.70847,18.70367 -3.08371,5.5577 -4.30663,0.26296 -5.99026,-25.93535 l -1.64034,-25.52462 5.86424,-7.12323 c 4.47474,-5.43544 6.06634,-8.59273 6.71721,-13.32509 1.10354,-8.02372 1.33484,-8.32223 9.73026,-12.5576 7.08776,-3.57568 7.16371,-3.58371 25.85859,-2.73489 10.31246,0.46822 33.5863,1.99993 51.71964,3.40379 18.13333,1.40387 35.0193,2.55827 37.52436,2.56534 7.1417,0.0201 19.8478,-8.2086 32.55028,-21.08028 9.6816,-9.81055 11.36222,-12.16871 12.07902,-16.94873 0.64023,-4.26932 0.20745,-6.77811 -1.87262,-10.85537 -3.42704,-6.71753 -3.3948,-7.49004 0.52704,-12.63184 1.77778,-2.33079 3.23232,-4.85843 3.23232,-5.61699 0,-0.75856 1.64545,-1.3792 3.65656,-1.3792 3.04583,0 7.16708,3.67115 24.67464,21.9798 18.12175,18.95095 21.55604,21.9798 24.92201,21.9798 2.87685,0 8.08539,-3.06145 19.7973,-11.63637 l 15.89334,-11.63636 h 9.59178 c 9.32974,0 9.83676,0.16826 18.55838,6.15873 l 8.9666,6.15873 0.32887,143.97416 0.32887,143.97416 -10.54695,17.30863 c -10.48879,17.21319 -10.6332,17.37606 -26.18746,29.53648 -14.70149,11.49372 -16.01089,12.23071 -21.80964,12.27565 -5.24428,0.0406 -6.38244,0.51596 -7.59195,3.17055 -1.64042,3.60032 -4.45952,4.59249 -13.11899,4.61718 -5.53316,0.0158 -6.71752,0.56883 -11.11294,5.18937 l -4.91973,5.17171 -21.21029,-0.17837 c -11.66566,-0.0981 -26.73757,-0.67364 -33.49313,-1.27898 z"
       id="path2345" />
    <path
       style="fill:#916f6f;stroke-width:1.29293"
       d="m 272.16162,469.49589 c 0,-0.97726 0.7861,-4.0318 1.7469,-6.78788 0.9608,-2.75607 2.13772,-11.41104 2.61537,-19.23326 1.61774,-26.49281 2.22072,-30.38384 4.70847,-30.38384 1.23694,0 2.81604,-0.72727 3.50909,-1.61616 1.74803,-2.24198 5.09217,-20.39128 7.44472,-40.40404 1.0867,-9.24445 2.31325,-18.9899 2.72565,-21.65657 1.34151,-8.6745 -1.70974,-5.1773 -3.38418,3.87879 -0.8875,4.8 -2.98448,14.83636 -4.65994,22.30303 -1.67546,7.46667 -3.05951,15.61212 -3.07566,18.10101 -0.0763,11.75607 -2.32566,12.98636 -22.17483,12.12857 -18.29477,-0.79061 -28.10302,-3.29879 -37.2595,-9.52804 -8.47062,-5.76265 -21.29641,-20.01799 -19.9584,-22.18294 0.50926,-0.824 3.82832,-9.7005 7.37568,-19.72556 6.17093,-17.43939 6.48376,-18.98196 7.23637,-35.68193 0.78082,-17.32581 0.82126,-17.50782 5.48369,-24.6773 5.56277,-8.55395 13.98254,-14.10905 21.39175,-14.11363 2.71781,-0.002 22.40146,3.49312 43.74143,7.76622 36.25215,7.2591 39.98777,8.27147 56.8889,15.41722 l 18.08893,7.64795 0.80521,13.99997 c 1.5936,27.70762 1.2731,52.00116 -0.73733,55.88891 -1.02933,1.99051 -4.58924,12.5798 -7.9109,23.53175 -7.79073,25.68705 -17.61336,49.59017 -23.02016,56.01897 l -4.26907,5.07601 -25.747,2.93759 c -30.91866,3.52763 -31.56519,3.55416 -31.56519,1.29516 z"
       id="path2421" />
    <path
       style="fill:#916f6f;stroke-width:1.29293"
       d="m 320.64646,252.65619 c -6.4,-0.57412 -20.01622,-1.63878 -30.25828,-2.36591 -16.38142,-1.163 -18.98704,-1.66507 -21.65657,-4.17296 -5.41583,-5.08791 -4.09512,-6.54065 10.86597,-11.95215 21.9526,-7.94038 29.76447,-9.88879 44.28121,-11.04451 9.971,-0.79382 15.51528,-1.94508 20.88014,-4.33574 5.21477,-2.32378 7.70247,-2.85685 8.69595,-1.86337 1.53118,1.53118 12.0322,-3.1335 21.72757,-9.65165 2.97257,-1.99845 5.72438,-3.63354 6.11514,-3.63354 0.39075,0 1.93644,2.40313 3.43487,5.34028 4.33502,8.49735 2.87861,12.28519 -9.52199,24.76473 -5.89472,5.93225 -14.32379,12.81423 -18.97903,15.49558 -9.2519,5.32895 -11.68761,5.56299 -35.58498,3.41924 z"
       id="path2460" />
    <path
       style="fill:#916f6f;stroke-width:1.29293"
       d="m 251.66815,549.52096 c -9.75386,-6.05412 -9.64423,-5.82901 -6.51097,-13.36848 l 2.78354,-6.69793 h 19.18836 19.18835 l 2.18157,4.20202 c 1.19986,2.31111 3.17836,7.48316 4.39666,11.49345 l 2.21509,7.29142 -4.68669,0.77515 c -2.57768,0.42634 -10.79578,0.73532 -18.26244,0.68663 -13.05429,-0.0851 -13.84148,-0.25344 -20.49347,-4.38226 z"
       id="path2499" />
    <path
       style="fill:#ff6600;stroke-width:1.29293"
       d="m 255.5469,516.84848 c 3.63613,-6.22222 7.06397,-11.81333 7.61743,-12.4247 0.55345,-0.61136 0.41138,-2.81811 -0.31573,-4.90388 -1.13498,-3.25581 -0.61545,-5.33757 3.67227,-14.71491 3.79253,-8.29432 5.61651,-10.93954 7.58014,-10.99302 1.42222,-0.0387 13.93131,-1.40805 27.79798,-3.04292 13.86667,-1.63486 25.32736,-2.89934 25.46821,-2.80996 0.14085,0.0894 -7.4511,9.74826 -16.87099,21.46417 -9.4199,11.71591 -19.0796,24.85326 -21.466,29.19412 l -4.3389,7.89246 -11.63519,0.82589 c -6.39935,0.45424 -14.44436,0.82589 -17.87778,0.82589 h -6.24259 z"
       id="path2538" />
    <path
       style="fill:#483737;stroke-width:1.29293"
       d="m 187.45513,627.22194 0.0196,-10.83867 25.72086,-34.09062 c 14.14647,-18.74985 26.17302,-34.59717 26.72565,-35.21628 0.55264,-0.61911 4.68734,1.12634 9.18823,3.87878 l 8.18344,5.00445 20.04909,0.40787 20.04909,0.40787 4.28048,7.38155 c 4.22251,7.28158 4.48504,7.4716 19.38525,14.03067 15.07075,6.63413 15.14994,6.65242 35.14518,8.11475 11.02222,0.8061 22.77901,1.79858 26.1262,2.2055 l 6.08579,0.73986 -2.99576,4.04283 c -2.87251,3.87651 -2.94594,4.54779 -1.78477,16.31685 1.15296,11.68592 1.08234,12.35942 -1.47387,14.05669 -2.1073,1.39919 -2.68486,3.13943 -2.68486,8.08962 v 6.30695 H 283.45511 187.4355 Z"
       id="path2614" />
    <path
       style="fill:#28170b;stroke-width:1.29293"
       d="m 248.88889,420.93492 c -12.18779,-0.65797 -14.60021,-1.22209 -23.59596,-5.51766 l -10.0202,-4.78475 v -8.54408 c 0,-6.47613 0.39116,-8.31588 1.61616,-7.60127 0.88889,0.51854 4.17663,2.67756 7.30609,4.79782 9.03539,6.12162 19.07678,8.63421 34.50607,8.63421 h 13.46057 v 7.11111 7.11111 l -4.84849,-0.23679 c -2.66667,-0.13024 -10.95757,-0.5666 -18.42424,-0.9697 z"
       id="path2690" />
    <path
       style="fill:#967972;stroke-width:1.29293;fill-opacity:1"
       d="m 295.01803,81.449151 c -8.29112,-2.278837 -14.80741,-6.758082 -24.79208,-17.041859 -5.96912,-6.147941 -9.18988,-10.805426 -11.55129,-16.704134 -4.2549,-10.628554 -3.49329,-14.652731 3.92335,-20.730108 l 5.60636,-4.593994 12.58953,0.943875 c 11.7454,0.880588 13.41683,1.376521 24.92812,7.396465 22.09483,11.554718 30.79227,20.718758 30.97252,32.634139 0.14015,9.264829 -0.88819,10.810747 -10.36639,15.583889 -7.42858,3.740975 -10.1521,4.437953 -16.96254,4.340906 -4.4622,-0.06359 -10.91861,-0.886717 -14.34758,-1.829179 z"
       id="path2766" />
    <path
       style="fill:#967972;fill-opacity:1;stroke-width:1.29293"
       d="m 310.94949,126.35984 c -8.88406,-0.68168 -31.28554,-5.6829 -39.78545,-8.88226 -5.28672,-1.98992 -10.9172,-5.35094 -14.49098,-8.65016 -3.21463,-2.96766 -7.5979,-6.84968 -9.74061,-8.62673 -6.79507,-5.635465 -11.89465,-13.312179 -14.60011,-21.978468 -4.86597,-15.58698 -4.81747,-16.788769 1.15827,-28.703718 6.38424,-12.729446 16.6677,-26.132626 22.33043,-29.104874 10.24623,-5.378032 21.75969,-5.663401 40.0763,-0.993317 11.2761,2.875003 17.33104,6.469271 33.5927,19.940923 l 14.73838,12.209722 0.91825,21.70221 c 0.84877,20.059872 0.71635,22.241862 -1.74982,28.833292 -3.0242,8.08288 -7.59256,15.72854 -11.46823,19.19333 -3.11248,2.78251 -14.58833,5.55043 -20.97913,5.06005 z m 17.13916,-45.410252 c 5.88065,-2.638473 8.77124,-4.727101 9.43965,-6.820749 1.3622,-4.266736 0.7241,-17.069821 -1.11124,-22.296366 -1.95586,-5.569778 -13.86484,-15.224108 -29.07888,-23.57357 l -11.25737,-6.178042 -15.51515,-0.403361 -15.51515,-0.403362 -4.92648,4.296929 c -7.18447,6.266381 -8.12514,11.877552 -3.82216,22.799402 3.57996,9.086695 10.37022,17.45161 22.02901,27.137536 13.35815,11.097725 32.48838,13.189834 49.75777,5.441583 z"
       id="path20388" />
    <path
       style="fill:#967972;fill-opacity:1;stroke-width:1.29293"
       d="m 285.73737,154.67818 c -8.12558,-2.33423 -17.76387,-7.21978 -34.65679,-17.56719 -10.925,-6.69189 -16.52877,-13.12394 -26.237,-30.11502 -5.05027,-8.838845 -8.52069,-20.916263 -11.72585,-40.807194 l -0.79317,-4.922335 6.93883,0.397082 6.93882,0.397083 0.97251,5.729375 c 0.53487,3.151157 2.22339,9.551156 3.75226,14.222223 2.54205,7.766586 3.89757,9.569661 15.85139,21.085056 14.58056,14.04579 20.27605,17.07694 40.58866,21.60134 16.99204,3.78477 27.57075,4.55235 36.53183,2.65068 10.78743,-2.28925 14.85534,-7.10393 22.77859,-26.96012 1.20616,-3.022725 1.27368,-2.996259 9.15303,3.58757 l 7.9379,6.63276 -3.90736,8.69525 c -2.14905,4.78239 -6.30203,12.60538 -9.22884,17.38442 -4.7843,7.81205 -6.24003,9.14786 -14.42127,13.23323 -14.47948,7.23045 -35.09669,9.17307 -50.47354,4.75579 z"
       id="path20427" />
    <path
       style="fill:#785d61;fill-opacity:1;stroke-width:1.29293"
       d="m 260.50231,178.09634 c -17.67745,-8.82613 -25.908,-13.8478 -37.49495,-22.8766 -22.56974,-17.58686 -40.20872,-38.11783 -50.04493,-58.250043 -4.13379,-8.460821 -4.37136,-9.640189 -3.64624,-18.10101 0.6142,-7.166617 1.41578,-9.691972 3.85093,-12.132216 2.89746,-2.903521 4.04278,-3.094037 19.80789,-3.294886 l 16.73261,-0.213176 3.57184,16.870644 c 4.01277,18.953298 8.63966,29.437077 19.45075,44.072247 6.13443,8.30429 8.23349,9.99209 23.98915,19.28897 22.77206,13.43702 28.94587,15.45039 47.11902,15.36615 16.61637,-0.077 27.01133,-2.39996 36.94216,-8.25539 8.65636,-5.10397 8.73238,-5.20364 17.80841,-23.34854 l 7.50282,-14.99974 3.7824,3.38721 c 13.21209,11.83168 18.01676,22.90417 16.58596,38.22287 -1.03645,11.09671 -5.08289,17.4803 -11.08044,17.4803 -2.08349,0 -11.06957,2.88983 -19.96907,6.42184 -18.1943,7.22088 -32.87628,10.04987 -57.39042,11.05822 l -14.86868,0.6116 z"
       id="path20466" />
    <path
       style="fill:#ef5d61;fill-opacity:1;stroke-width:1.29293"
       d="m 243.71717,240.10756 c 0,-3.12751 11.39807,-21.45003 18.01808,-28.96425 8.37181,-9.50266 14.57486,-11.73172 55.03243,-19.77587 30.30871,-6.02626 38.05267,-8.03398 47.5704,-12.33324 6.25261,-2.82436 12.17255,-5.13521 13.15542,-5.13521 0.98286,0 3.59782,3.34327 5.81101,7.42949 4.89426,9.0363 4.20606,11.10485 -5.93375,17.83527 -15.80539,10.49103 -47.91866,21.28069 -63.33768,21.28069 -2.47771,0 -6.07603,0.77698 -7.99628,1.72663 -1.92024,0.94964 -6.98225,2.43077 -11.24892,3.29139 -9.72601,1.96182 -26.49287,7.72425 -29.18105,10.02895 -2.40904,2.06536 -16.10413,6.93283 -19.50621,6.93283 -1.42918,0 -2.38345,-0.92753 -2.38345,-2.31668 z"
       id="path21985" />
    <path
       style="fill:#967972;fill-opacity:1;stroke-width:1.29293"
       d="m 195.87879,336.24708 c -11.05337,-2.05704 -20.6741,-7.10893 -23.82841,-12.51241 -1.37229,-2.3508 -3.20809,-7.34149 -4.07955,-11.09041 -1.36221,-5.86003 -1.25929,-8.04405 0.73367,-15.56863 3.42126,-12.91723 7.55251,-21.16784 12.91722,-25.7973 4.08222,-3.52273 5.20089,-5.75774 7.76569,-15.51515 3.94482,-15.00752 4.86343,-16.82745 8.90133,-17.63525 2.67579,-0.5353 4.90554,-3.27277 10.37565,-12.73821 10.36867,-17.94187 7.99277,-16.58164 28.96289,-16.58164 17.96367,0 18.05599,0.0151 14.99153,2.44997 -3.20131,2.5436 -12.20222,19.53965 -15.96888,30.15336 -1.85818,5.236 -3.2026,6.6827 -9.50807,10.23138 -4.03913,2.27321 -7.48935,4.23203 -7.66715,4.35294 -0.1778,0.12091 -1.00324,3.66224 -1.83432,7.86963 -1.17825,5.96498 -2.7802,9.14618 -7.27358,14.44405 l -5.76253,6.79426 1.52207,23.58958 c 0.83714,12.97427 1.79408,24.89867 2.12654,26.49867 0.69827,3.36056 0.22893,3.40058 -12.3741,1.05516 z"
       id="path22914" />
    <path
       id="path27863"
       style="fill:#967972;fill-opacity:1;stroke-width:1.29293"
       d="m 192.86914,64.646484 c -15.18849,0 -16.52036,0.200923 -19.21875,2.902344 -2.31258,2.315183 -3.00163,4.72663 -3.4082,11.921875 -0.47123,8.339757 -0.15052,9.728877 4.25781,18.40625 7.29695,14.363367 15.37284,24.951507 30.37109,39.820317 17.47147,17.32068 29.7393,25.98263 55.92969,39.49609 l 21.0586,10.86719 11.66992,0.0293 c 21.91138,0.0578 41.57626,-3.42016 60.73242,-10.74218 5.68889,-2.17446 13.80689,-4.86573 18.03906,-5.98047 10.61799,-2.79673 12.99971,-6.83974 12.97461,-22.03321 -0.0155,-9.38215 -0.52028,-11.93616 -3.44727,-17.45507 -3.19596,-6.02605 -14.61315,-18.64022 -15.72656,-17.375 -0.27386,0.31121 -3.83304,7.12583 -7.91015,15.14257 -8.02413,15.7777 -10.71979,18.60749 -23.11719,24.28321 -10.16075,4.65174 -29.42694,6.803 -43.18945,4.82031 -7.89796,-1.13782 -13.0349,-2.979 -24.2461,-8.68945 -19.29512,-9.82799 -27.23681,-15.48093 -34.6289,-24.64649 -9.51434,-11.79696 -15.91594,-25.968682 -20.15039,-44.605466 l -3.67188,-16.16211 z" />
    <path
       style="fill:none;fill-rule:evenodd;stroke:#000000;stroke-width:1px;stroke-linecap:butt;stroke-linejoin:miter;stroke-opacity:1"
       d="m 304.48804,352.49452 -4.56316,43.42278"
       id="path28975"
       inkscape:connector-type="polyline"
       inkscape:connector-curvature="0" />
    <path
       style="fill:none;fill-rule:evenodd;stroke:#000000;stroke-width:1px;stroke-linecap:butt;stroke-linejoin:miter;stroke-opacity:1"
       d="m 314.31521,351.57849 -10.73784,54.624"
       id="path28977"
       inkscape:connector-type="polyline"
       inkscape:connector-curvature="0" />
    <path
       style="fill:none;fill-rule:evenodd;stroke:#000000;stroke-width:1px;stroke-linecap:butt;stroke-linejoin:miter;stroke-opacity:1"
       d="m 321.17379,349.97679 -16.68575,69.70894"
       id="path28979"
       inkscape:connector-type="polyline"
       inkscape:connector-curvature="0" />
    <path
       style="fill:none;fill-rule:evenodd;stroke:#000000;stroke-width:1px;stroke-linecap:butt;stroke-linejoin:miter;stroke-opacity:1"
       d="m 269.07071,320.14646 17.13701,22.74498"
       id="path28983"
       inkscape:connector-type="polyline"
       inkscape:connector-curvature="0" />
    <path
       style="fill:none;fill-rule:evenodd;stroke:#000000;stroke-width:1px;stroke-linecap:butt;stroke-linejoin:miter;stroke-opacity:1"
       d="m 278.43937,316.38029 13.935,19.65435"
       id="path28985"
       inkscape:connector-type="polyline"
       inkscape:connector-curvature="0" />
    <path
       style="fill:none;fill-rule:evenodd;stroke:#000000;stroke-width:1px;stroke-linecap:butt;stroke-linejoin:miter;stroke-opacity:1"
       d="m 295.80812,315.69461 -0.45533,23.99877"
       id="path28989"
       inkscape:connector-type="polyline"
       inkscape:connector-curvature="0" />
    <path
       style="fill:none;fill-rule:evenodd;stroke:#000000;stroke-width:1px;stroke-linecap:butt;stroke-linejoin:miter;stroke-opacity:1"
       d="M 309.51546,320.03903 297.17412,342.4361"
       id="path28991"
       inkscape:connector-type="polyline"
       inkscape:connector-curvature="0" />
    <path
       style="fill:none;fill-rule:evenodd;stroke:#000000;stroke-width:1px;stroke-linecap:butt;stroke-linejoin:miter;stroke-opacity:1"
       d="m 264.26687,332.83659 19.65525,16.00097"
       id="path28993"
       inkscape:connector-type="polyline"
       inkscape:connector-curvature="0" />
    <path
       style="fill:none;fill-rule:evenodd;stroke:#000000;stroke-width:1px;stroke-linecap:butt;stroke-linejoin:miter;stroke-opacity:1"
       d="m 269.22727,626.08081 54.30808,-25.87879"
       id="path28995"
       inkscape:connector-type="polyline"
       inkscape:connector-curvature="0" />
    <path
       style="fill:none;fill-rule:evenodd;stroke:#000000;stroke-width:1px;stroke-linecap:butt;stroke-linejoin:miter;stroke-opacity:1"
       d="M 357.12626,604.08081 337.75253,629.9596"
       id="path28997"
       inkscape:connector-type="polyline"
       inkscape:connector-curvature="0" />
    <path
       style="fill:none;fill-rule:evenodd;stroke:#000000;stroke-width:1px;stroke-linecap:butt;stroke-linejoin:miter;stroke-opacity:1"
       d="m 373.91919,605.38384 -9.0101,34.90909"
       id="path28999"
       inkscape:connector-type="polyline"
       inkscape:connector-curvature="0" />
    <path
       style="fill:none;fill-rule:evenodd;stroke:#000000;stroke-width:1px;stroke-linecap:butt;stroke-linejoin:miter;stroke-opacity:1"
       d="M 340.32828,595.05051 317.0404,636.41414"
       id="path29001"
       inkscape:connector-type="polyline"
       inkscape:connector-curvature="0" />
    <path
       style="fill:none;fill-rule:evenodd;stroke:#000000;stroke-width:1px;stroke-linecap:butt;stroke-linejoin:miter;stroke-opacity:1"
       d="m 326.11111,342.91919 -9.07071,89.21212"
       id="path29003"
       inkscape:connector-type="polyline"
       inkscape:connector-curvature="0" />
    <path
       style="fill:none;fill-rule:evenodd;stroke:#000000;stroke-width:1px;stroke-linecap:butt;stroke-linejoin:miter;stroke-opacity:1"
       d="m 408.85354,297.67677 47.81313,34.90909"
       id="path29005"
       inkscape:connector-type="polyline"
       inkscape:connector-curvature="0" />
    <path
       style="fill:none;fill-rule:evenodd;stroke:#000000;stroke-width:1px;stroke-linecap:butt;stroke-linejoin:miter;stroke-opacity:1"
       d="m 428.22727,296.37374 41.37374,18.12121"
       id="path29007"
       inkscape:connector-type="polyline"
       inkscape:connector-curvature="0" />
    <path
       style="fill:none;fill-rule:evenodd;stroke:#000000;stroke-width:1px;stroke-linecap:butt;stroke-linejoin:miter;stroke-opacity:1"
       d="m 423.07576,267.94949 53.01515,21.9697"
       id="path29009"
       inkscape:connector-type="polyline"
       inkscape:connector-curvature="0" />
    <path
       style="fill:none;fill-rule:evenodd;stroke:#000000;stroke-width:1px;stroke-linecap:butt;stroke-linejoin:miter;stroke-opacity:1"
       d="m 481.27273,275.70707 18.08586,10.33333"
       id="path29013"
       inkscape:connector-type="polyline"
       inkscape:connector-curvature="0" />
    <path
       style="fill:none;fill-rule:evenodd;stroke:#000000;stroke-width:1px;stroke-linecap:butt;stroke-linejoin:miter;stroke-opacity:1"
       d="m 398.52525,331.28283 45.23738,29.75757"
       id="path29015"
       inkscape:connector-type="polyline"
       inkscape:connector-curvature="0" />
    <path
       style="fill:none;fill-rule:evenodd;stroke:#000000;stroke-width:1px;stroke-linecap:butt;stroke-linejoin:miter;stroke-opacity:1"
       d="m 433.40909,494.21212 23.28788,-43.9697"
       id="path29017"
       inkscape:connector-type="polyline"
       inkscape:connector-curvature="0" />
    <path
       style="fill:none;fill-rule:evenodd;stroke:#000000;stroke-width:1px;stroke-linecap:butt;stroke-linejoin:miter;stroke-opacity:1"
       d="m 446.33838,542.0303 47.86869,-87.90909"
       id="path29019"
       inkscape:connector-type="polyline"
       inkscape:connector-curvature="0" />
    <path
       style="fill:none;fill-rule:evenodd;stroke:#000000;stroke-width:1px;stroke-linecap:butt;stroke-linejoin:miter;stroke-opacity:1"
       d="m 507.08586,463.18182 -21.9495,80.15151"
       id="path29021"
       inkscape:connector-type="polyline"
       inkscape:connector-curvature="0" />
    <path
       style="fill:none;fill-rule:evenodd;stroke:#000000;stroke-width:1px;stroke-linecap:butt;stroke-linejoin:miter;stroke-opacity:1"
       d="m 470.91919,452.81818 -34.93434,68.54546"
       id="path29023"
       inkscape:connector-type="polyline"
       inkscape:connector-curvature="0" />
    <path
       style="display:inline;fill:none;fill-rule:evenodd;stroke:#000000;stroke-width:1px;stroke-linecap:butt;stroke-linejoin:miter;stroke-opacity:1"
       d="m 247.25253,231.72727 50.38888,-25.84848"
       id="path29025"
       inkscape:connector-type="polyline"
       inkscape:connector-curvature="0" />
    <path
       style="fill:none;fill-rule:evenodd;stroke:#000000;stroke-width:1px;stroke-linecap:butt;stroke-linejoin:miter;stroke-opacity:1"
       d="m 247.25253,76.59596 47.81313,32.30303"
       id="path29027"
       inkscape:connector-type="polyline"
       inkscape:connector-curvature="0" />
    <path
       style="fill:none;fill-rule:evenodd;stroke:#000000;stroke-width:1px;stroke-linecap:butt;stroke-linejoin:miter;stroke-opacity:1"
       d="m 236.89899,106.32323 6.43939,7.75758"
       id="path29029"
       inkscape:connector-type="polyline"
       inkscape:connector-curvature="0" />
    <path
       style="fill:none;fill-rule:evenodd;stroke:#000000;stroke-width:1px;stroke-linecap:butt;stroke-linejoin:miter;stroke-opacity:1"
       d="m 295.06566,137.35354 29.73232,-1.30303"
       id="path29031"
       inkscape:connector-type="polyline"
       inkscape:connector-curvature="0" />
    <path
       style="fill:none;fill-rule:evenodd;stroke:#000000;stroke-width:1px;stroke-linecap:butt;stroke-linejoin:miter;stroke-opacity:1"
       d="m 371.37374,146.41414 -23.28788,6.45455"
       id="path29033"
       inkscape:connector-type="polyline"
       inkscape:connector-curvature="0" />
    <path
       style="fill:none;fill-rule:evenodd;stroke:#000000;stroke-width:1px;stroke-linecap:butt;stroke-linejoin:miter;stroke-opacity:1"
       d="m 199.38889,95.989899 14.22222,18.090911"
       id="path29035"
       inkscape:connector-type="polyline"
       inkscape:connector-curvature="0" />
    <path
       style="fill:none;fill-rule:evenodd;stroke:#000000;stroke-width:1px;stroke-linecap:butt;stroke-linejoin:miter;stroke-opacity:1"
       d="m 327.37374,59.777778 15.5606,11.636363"
       id="path29037"
       inkscape:connector-type="polyline"
       inkscape:connector-curvature="0" />
    <path
       style="fill:none;fill-rule:evenodd;stroke:#000000;stroke-width:1px;stroke-linecap:butt;stroke-linejoin:miter;stroke-opacity:1"
       d="m 186.45455,304.14141 -10.35354,21.9697"
       id="path29039"
       inkscape:connector-type="polyline"
       inkscape:connector-curvature="0" />
    <path
       style="fill:none;fill-rule:evenodd;stroke:#000000;stroke-width:1px;stroke-linecap:butt;stroke-linejoin:miter;stroke-opacity:1"
       d="m 200.67677,288.62626 -16.79798,15.51515"
       id="path29041"
       inkscape:connector-type="polyline"
       inkscape:connector-curvature="0" />
    <path
       style="fill:none;fill-rule:evenodd;stroke:#000000;stroke-width:1px;stroke-linecap:butt;stroke-linejoin:miter;stroke-opacity:1"
       d="m 216.18687,239.50505 -19.37374,16.78788"
       id="path29043"
       inkscape:connector-type="polyline"
       inkscape:connector-curvature="0" />
    <path
       style="fill:none;fill-rule:evenodd;stroke:#000000;stroke-width:1px;stroke-linecap:butt;stroke-linejoin:miter;stroke-opacity:1"
       d="m 235.61111,227.86869 -7.78283,12.90909"
       id="path29045"
       inkscape:connector-type="polyline"
       inkscape:connector-curvature="0" />
    <path
       style="fill:none;fill-rule:evenodd;stroke:#000000;stroke-width:1px;stroke-linecap:butt;stroke-linejoin:miter;stroke-opacity:1"
       d="m 196.81313,298.9596 v 14.24242"
       id="path29047"
       inkscape:connector-type="polyline"
       inkscape:connector-curvature="0" />
    <path
       style="fill:none;fill-rule:evenodd;stroke:#000000;stroke-width:1px;stroke-linecap:butt;stroke-linejoin:miter;stroke-opacity:1"
       d="m 199.38889,276.9899 -9.07071,9.06061"
       id="path29049"
       inkscape:connector-type="polyline"
       inkscape:connector-curvature="0" />
    <path
       style="fill:none;fill-rule:evenodd;stroke:#000000;stroke-width:1px;stroke-linecap:butt;stroke-linejoin:miter;stroke-opacity:1"
       d="m 208.4596,251.14141 -12.93435,15.51516"
       id="path29051"
       inkscape:connector-type="polyline"
       inkscape:connector-curvature="0" />
    <path
       style="fill:none;fill-rule:evenodd;stroke:#000000;stroke-width:1px;stroke-linecap:butt;stroke-linejoin:miter;stroke-opacity:1"
       d="m 218.81313,251.14141 -8.21844,22.19037"
       id="path29053"
       inkscape:connector-type="polyline"
       inkscape:connector-curvature="0"
       inkscape:connection-end="#path22914" />
    <path
       style="fill:none;fill-rule:evenodd;stroke:#000000;stroke-width:1px;stroke-linecap:butt;stroke-linejoin:miter;stroke-opacity:1"
       d="m 385.55556,398.52525 100.88383,-5.18182"
       id="path29055"
       inkscape:connector-type="polyline"
       inkscape:connector-curvature="0" />
    <path
       style="fill:none;fill-rule:evenodd;stroke:#000000;stroke-width:1px;stroke-linecap:butt;stroke-linejoin:miter;stroke-opacity:1"
       d="m 464.43939,346.79798 43.9495,32.33333"
       id="path29057"
       inkscape:connector-type="polyline"
       inkscape:connector-curvature="0" />
    <path
       style="fill:none;fill-rule:evenodd;stroke:#000000;stroke-width:1px;stroke-linecap:butt;stroke-linejoin:miter;stroke-opacity:1"
       d="m 476.08586,317.07071 28.43939,28.45454"
       id="path29059"
       inkscape:connector-type="polyline"
       inkscape:connector-curvature="0" />
    <path
       style="fill:none;fill-rule:evenodd;stroke:#000000;stroke-width:1px;stroke-linecap:butt;stroke-linejoin:miter;stroke-opacity:1"
       d="m 490.30303,306.73737 18.08586,6.45455"
       id="path29061"
       inkscape:connector-type="polyline"
       inkscape:connector-curvature="0" />
  </g>
</svg>
