<?xml version="1.0" encoding="UTF-8" standalone="no"?>
<!-- Created with Inkscape (http://www.inkscape.org/) -->

<svg
   version="1.1"
   id="svg53"
   width="256"
   height="256"
   viewBox="0 0 256 256"
   sodipodi:docname="3.svg"
   inkscape:version="1.1.2 (0a00cf5339, 2022-02-04)"
   inkscape:export-filename="/home/alumnat/AO/UD5/UD5.PNG/3.jpg"
   inkscape:export-xdpi="96"
   inkscape:export-ydpi="96"
   xmlns:inkscape="http://www.inkscape.org/namespaces/inkscape"
   xmlns:sodipodi="http://sodipodi.sourceforge.net/DTD/sodipodi-0.dtd"
   xmlns="http://www.w3.org/2000/svg"
   xmlns:svg="http://www.w3.org/2000/svg">
  <defs
     id="defs57" />
  <sodipodi:namedview
     id="namedview55"
     pagecolor="#ffffff"
     bordercolor="#666666"
     borderopacity="1.0"
     inkscape:pageshadow="2"
     inkscape:pageopacity="0.0"
     inkscape:pagecheckerboard="0"
     showgrid="false"
     inkscape:zoom="1.4142136"
     inkscape:cx="33.234019"
     inkscape:cy="132.58252"
     inkscape:window-width="1374"
     inkscape:window-height="836"
     inkscape:window-x="0"
     inkscape:window-y="0"
     inkscape:window-maximized="1"
     inkscape:current-layer="g59" />
  <g
     inkscape:groupmode="layer"
     inkscape:label="Image"
     id="g59"
     style="display:inline">
    <path
       style="fill:none;stroke:#000000;stroke-width:1px;stroke-linecap:butt;stroke-linejoin:miter;stroke-opacity:1"
       d="m 119.75598,109.3449 2.14394,-2.24562 c 0,0 0.91707,-10.717701 0.10088,-11.125596 -0.81619,-0.407894 -1.83653,-6.02193 -1.83653,-6.02193 l -0.81658,0.407895 -0.81619,0.102074 -1.02073,-0.919458 -0.91946,-1.938597 -0.0626,-2.563995 -0.15371,-1.582735 0.30622,-2.858054 0.61224,-0.459131 0.81758,-0.407895 0.4081,0.407895 0.61244,0.510167 0.30602,1.327552 0.10207,-4.593501 0.15252,-1.68421 0.40929,-2.347887 0.76495,-2.602472 0.40809,-1.22508 1.78648,-2.246012 1.42863,-1.173246 1.58234,-0.91886 2.24621,-0.561403 3.01097,-0.102273 2.34709,0.153509 1.53189,0.254984 1.32656,0.356858 1.99043,0.663676 1.5307,0.561404 1.78648,0.765351 0.81639,0.663676 0.71432,1.275717 0.81638,1.83772 0.76595,1.888158 1.02054,3.827551 -0.20415,5.766747 v 0.91886 l 1.32775,-1.377792 0.35666,-0.255183 h 0.35766 l 0.61244,0.459131 0.45853,0.459729 0.15371,1.071571 -0.25578,1.480263 -0.66268,3.214912 -0.56181,1.99063 -0.51036,1.122807 -1.07197,0.765351 -0.61224,0.05124 -0.4083,-0.510367 -0.30478,1.548347 -0.46943,1.407588 -0.72163,1.515571 -0.68596,0.577273 -0.46858,4.98033 -0.21653,2.23763 0.25219,1.04614 1.11888,1.22714 -3.60869,4.40307 -0.97453,0.90192 -16.23949,-0.10798 z"
       id="path176" />
    <path
       style="fill:none;stroke:#000000;stroke-width:1px;stroke-linecap:butt;stroke-linejoin:miter;stroke-opacity:1"
       d="m 118.68088,79.561002 -0.0904,-5.90031 0.86626,-3.57282 0.99243,-2.869027 0.75765,-1.479694 2.63459,-2.724532 2.47184,-2.417851 3.21187,-2.02102 5.4855,-0.198416 4.1864,1.100484 1.75007,1.064819 1.69637,3.049398 1.9487,2.706629 1.40745,2.652426 1.06453,2.959177 0.14429,1.569844 0.23471,1.15497 -0.054,3.915519 -0.0361,1.245049 -0.30689,0.667565 0.0533,1.615735 -1.32775,1.377792 c 0,0 0.20415,-6.685607 0.20415,-6.685607 l -2.60287,-7.553429 -0.71432,-1.275717 -7.45056,-3.010965 -1.53189,-0.254984 -2.34709,-0.153509 -3.01097,0.102273 -2.24621,0.561403 -1.58234,0.91886 -1.42863,1.173246 -1.78648,2.246012 -1.17304,3.827552 -0.40929,2.347887 -0.15252,1.68421 -0.40809,3.265949 z"
       id="path211" />
    <path
       style="fill:none;stroke:#000000;stroke-width:1px;stroke-linecap:butt;stroke-linejoin:miter;stroke-opacity:1"
       d="m 121.42763,105.91328 -0.5618,-0.15351 h -0.9689 l -0.86802,0.51096 -0.15251,0.25519 -0.56181,-0.40869 -0.81638,-0.35746 -0.61224,-0.0504 -0.56181,0.15291 -0.97009,1.63298 -0.56061,0.45972 -1.37839,2.34729 -2.39872,-0.45913 -1.37819,0.20395 -1.22448,0.86782 -0.61224,1.12281 -0.15371,1.27552 0.0516,0.86782 -6.43142,2.60307 -2.908889,1.78569 -2.449162,2.0929 -1.281916,1.77132 -0.956272,1.5339 -2.609899,6.1878 -2.450358,5.9709 -0.510168,2.19457 0.255582,2.45016 -0.765949,2.24562 -0.306021,2.44956 0.05044,1.48026 -1.122608,3.0622 -1.020534,4.69518 -0.306021,0.86762 0.203948,2.96053 -1.480064,1.63297 -0.61244,1.17325 0.102073,7.34928 0.102074,1.93939 0.255582,2.80762 0.204146,1.17324 3.623405,3.98107 0.66268,0.51016 10.462719,2.80722 3.674842,-0.76535 -0.61224,5.10347 -1.684412,3.57237 -1.224482,1.83772 -0.71551,2.90869 -0.204147,1.73544 -0.458532,3.62421 0.102073,1.07157 0.663876,0.91806 -0.663876,1.68421 0.152512,1.48026 1.37819,3.21571 -0.764753,5.92026 -0.663876,2.90849 0.612241,1.68421 1.224482,2.14394 2.092704,2.29685 2.60267,1.58194 7.36144,1.69617 8.98246,1.22528 6.32735,0.71332 6.02393,0.30702 9.39074,-1.73525 12.55303,-2.65351 4.28828,-1.42983 3.57297,-2.75598 1.5295,-2.55103 0.26456,-2.08513 0.051,-1.42913 -0.35725,-3.0621 -0.94418,-3.9046 0.74013,-2.34749 -0.17893,-2.11802 0.56131,-1.14843 -0.20405,-1.63307 0.15301,-3.24083 0.20415,-3.16448 0.33194,-5.33303 v -10.64125 l 0.0768,-4.23604 -0.43391,-1.02074 -0.30622,-13.52462 2.19468,-4.0322 1.45444,-3.54675 -0.0258,-1.17394 1.51187,-2.03559 3.72547,1.12281 4.95056,2.5008 3.98106,0.66368 7.75678,2.19437 7.6559,-2.55183 3.26615,-2.39872 0.51017,-3.16448 0.71551,-4.18421 -0.76595,-2.44996 -7.6559,-10.00359 -5.71571,-1.58174 -4.89952,-1.93959 -2.14295,-2.24561 -1.73604,-0.35746 -3.16348,-3.6236 -0.86802,-1.58194 -2.34709,-0.51017 -0.61324,-0.25578 -0.61224,-1.93939 -2.34828,-0.20395 -1.63278,-1.88816 -0.96989,-0.81639 -2.44917,-0.45993 -1.47986,-0.30542 -2.04207,0.25499 -1.22468,1.17324 -0.51017,-0.35666 -1.1226,-1.88895 -1.5319,-0.9693 -0.15251,-0.51017 -2.96053,-1.68421 -1.27592,-1.63377 -1.42862,0.30642 -3.62321,-2.70475 -4.2461,0.22189 1.37107,2.27328 -4.58322,5.30499 -4.461,2.90096 c 0,0 -2.99499,1.02859 -3.04933,1.11881 -0.0543,0.0902 -3.6629,-1.62405 -3.6629,-1.62405 l -3.64521,-0.72162 -1.42105,-1.78208 -2.88081,-2.32116 2.14394,-2.24562 z"
       id="path213" />
    <path
       style="fill:none;stroke:#000000;stroke-width:1px;stroke-linecap:butt;stroke-linejoin:miter;stroke-opacity:1"
       d="m 104.62883,201.74239 1.08237,-0.46887 2.3456,-3.39231 3.1036,-5.4134 1.98486,-5.34094 c 0,0 0.72149,-3.57289 0.72149,-3.75319 0,-0.1803 0.10869,-3.6813 0.10869,-3.6813 l 3.50057,0.0725 14.8319,-0.79394 16.70892,-1.08251 3.17578,-0.97425 0.21653,2.27329 0.46929,3.28376 0.68596,3.53666 1.62398,5.81037 1.98472,4.29424 2.99505,3.97028 -0.10784,2.92302 -0.0365,1.08237 -0.52299,5.88914 -1.88856,1.17325 -5.5622,2.60307 -7.60427,1.32675 -5.39752,1.13537 -8.88158,0.61244 -7.24641,0.20335 -7.75798,-1.02034 -8.16627,-2.04106 -1.9378,-0.61244 z"
       id="path248" />
    <path
       style="fill:none;stroke:#000000;stroke-width:1px;stroke-linecap:butt;stroke-linejoin:miter;stroke-opacity:1"
       d="m 97.389923,217.12165 -1.428998,3.36858 0.204147,5.92026 -0.561802,4.89992 -0.102074,18.47528 1.020335,6.78728 27.712919,-0.0504 3.11304,-6.73684 1.48026,-4.4402 0.9701,-2.75578 0.51016,-1.99043 0.9701,-1.5315 1.48026,-0.0512 5.35806,17.60765 28.83612,-0.10167 0.35646,-20.41507 0.25578,-3.62341 -0.86802,-12.60606 v -2.75618 l -2.42949,-2.99129 -0.31556,3.51426 -1.5295,2.55103 -3.57297,2.75598 -26.23205,5.81859 -28.69518,-3.94179 -2.60267,-1.58194 -2.092704,-2.29685 z"
       id="path250" />
    <path
       style="fill:none;stroke:#000000;stroke-width:1px;stroke-linecap:butt;stroke-linejoin:miter;stroke-opacity:1"
       d="m 130.97129,165.06439 0.25578,-1.1228 1.53071,-0.76535 1.48026,-1.47967 2.34808,-3.67464 1.42883,-2.29685 0.35666,-1.07157 0.4081,-1.22528 1.48026,-1.58194 3.0626,-3.16407 0.81639,-1.17385 -0.45973,-1.37799 -1.12261,-0.61264 h -1.32656 l -1.88855,1.07177 -1.63278,0.9699 -1.12261,1.37799 -2.14393,1.99063 -0.76595,-0.45993 -0.35666,-0.81639 0.76595,-1.27571 0.0504,-3.36842 2.34708,-8.93122 2.96053,0.40809 0.25578,-3.87899 -0.15371,-3.11343 0.20415,-3.06221 0.5618,-2.19437 -6.53329,-0.91886 -3.77592,-0.66308 -1.07197,0.20395 -1.02053,0.5614 -0.45973,0.51037 -15.66846,4.28728 -0.51017,-0.0512 -0.0305,1.40895 -2.74216,0.65015 -0.14435,1.65922 0.43306,0.57798 0.72148,0.43306 0.36004,0.0725 0.36173,0.36088 0.83076,0.31756 0.84221,0.1276 1.12251,-0.17843 h 0.10207 l 0.0258,0.5615 0.22986,0.48465 0.35716,0.38268 0.40819,0.22986 0.45923,0.30592 0.58712,0.0256 1.04626,-0.10198 1.35237,-0.25518 1.50548,-0.48495 0.74023,0.10228 0.71432,-0.0511 1.17354,-0.30632 1.32715,-0.25508 1.14833,-0.0511 1.60756,-0.20395 1.4035,-0.30632 0.20405,-0.0511 0.91886,0.45943 1.40341,0.25508 1.78648,0.12759 -0.8422,2.47528 -0.94428,2.52632 -0.86732,3.64912 -0.51087,2.16916 -1.58174,2.80682 -3.18979,6.4051 -0.17893,0.89324 -0.10207,1.96501 0.051,1.73495 0.30672,1.45465 0.45923,1.37799 0.81639,1.04635 0.91846,0.99531 1.32716,0.79087 1.09728,0.43391 0.91846,0.25509 0.84221,-0.0764 z"
       id="path252" />
    <path
       style="fill:none;stroke:#000000;stroke-width:1px;stroke-linecap:butt;stroke-linejoin:miter;stroke-opacity:1"
       d="m 139.44354,136.48445 5.61447,1.27532 0.81639,-0.20395 2.14414,0.71491 2.75538,0.10168 0.81619,1.17384 0.81659,1.02054 1.58214,-0.15271 0.20414,1.48026 1.32775,0.51017 1.58114,0.25518 0.56161,-0.0512 5.20574,2.85826 2.6543,1.37779 3.52175,1.12284 8.67603,3.62361 11.73784,2.85805 7.6559,-2.55183 3.26615,-2.39872 1.22568,-7.34869 -0.76595,-2.44996 -7.6559,-10.00359 -5.71571,-1.58174 -2.55783,-0.13381 -7.24701,-0.0511 -1.25039,-0.33194 -2.32187,-0.10198 -5.25698,-0.58672 -1.45455,-1.2504 c 0,0 -1.70953,-0.99521 -1.8116,-1.02083 -0.10207,-0.0256 -1.55652,-0.25518 -1.55652,-0.25518 0,0 -2.90899,0.71461 -3.08782,0.71461 -0.17883,0 -0.51027,0 -0.51027,0 l -1.02073,-1.65879 -1.37819,-0.76575 -0.63816,-0.4082 -1.50548,-0.0253 -0.8422,0.43351 -1.2503,1.32715 -0.48445,0.53579 -1.8125,-0.45943 -0.86743,-0.22947 -0.9694,0.30622 -0.43401,0.45943 -0.48504,-0.0768 -0.66328,-0.56141 -0.61234,-0.25508 -1.86304,0.12759 c 0,0 -1.60815,-0.0255 -1.88846,0 -0.2803,0.0255 -2.04147,0 -2.04147,0 l -1.34643,0.38886 -0.5618,2.19437 -0.20415,3.06221 0.15371,3.11343 z"
       id="path367" />
    <path
       style="fill:none;stroke:#000000;stroke-width:1px;stroke-linecap:butt;stroke-linejoin:miter;stroke-opacity:1"
       d="m 131.52724,134.46229 4.95577,1.61407 z"
       id="path601" />
    <path
       style="fill:none;stroke:#000000;stroke-width:1px;stroke-linecap:butt;stroke-linejoin:miter;stroke-opacity:1"
       d="m 85.090083,158.53234 -1.480064,1.63297 -0.61244,1.17325 0.459729,12.09629 0.204146,1.17324 3.623405,3.98107 11.125399,3.31738 3.674842,-0.76535 3.67427,-0.56125 1.99063,-0.40869 2.55223,-0.30622 2.14314,-0.71431 2.65431,-0.81639 c 0,0 1.83672,-0.86842 2.14294,-0.9701 0.30622,-0.10167 1.939,-0.71411 1.939,-0.71411 0,0 1.17524,-1.07177 1.42982,-1.17404 0.25459,-0.10228 1.58234,-1.32676 1.58234,-1.32676 l 1.58114,-1.32675 10.10586,-9.79905 -1.123,0.15272 -1.53071,0.76535 -0.25578,1.1228 -0.92434,0.30067 -1.76067,-0.17869 -1.09728,-0.43391 -2.24562,-1.78618 -0.81639,-1.04635 -0.76595,-2.83264 -0.051,-1.73495 0.10207,-1.96501 0.17893,-0.89324 -0.71739,0.96659 -0.77825,1.42912 -0.70176,0.0128 -0.42105,0.36992 -1.02079,0.82949 -0.35715,0.17853 -0.44662,-0.57416 -1.30129,-0.16577 -1.35272,0.17853 -0.89294,0.51042 -0.39554,0.19133 -0.71461,-0.31888 -0.59968,0.0254 -0.54865,0.0637 -1.56932,0.80393 c 0,0 -1.14828,0.53583 -1.19932,0.53583 -0.051,0 -0.25543,-0.0126 -0.31908,0.0256 -0.0636,0.0382 -0.57416,-0.33189 -0.57416,-0.33189 l -0.43386,-0.0254 -2.53888,1.08443 -1.5155,-0.25224 -1.35247,0.22986 -0.51026,-0.12789 -0.33194,-2.04136 -0.35716,-5.9711 -0.33194,-8.47199 0.43401,-5.4354 0.25509,-1.91398 0.45923,-6.02243 -0.45923,5.94568 -0.25509,2.14384 -0.33193,4.15929 -0.051,1.27601 0.15311,5.79257 0.48495,8.57406 0.30622,1.96491 0.5612,0.17873 1.27343,-0.27098 1.54361,0.25528 2.52626,-1.07182 h 0.47209 l 0.52318,0.33169 h 0.29351 l 2.8579,-1.36513 1.13562,-0.0894 0.76565,0.3445 1.23749,-0.68899 1.35262,-0.25509 1.28848,0.22952 0.44677,0.54879 0.44662,-0.17873 1.33951,-1.14822 0.66363,-0.0637 0.79107,-1.45469 0.76837,-0.94112 -0.17893,0.89324 -0.10207,1.96501 0.051,1.73495 0.76595,2.83264 0.81639,1.04635 2.24562,1.78618 1.09728,0.43391 1.76067,0.17869 0.92434,-0.30067 0.25578,-1.1228 1.53071,-0.76535 1.11433,-0.13662 -12.89937,12.24891 -0.56156,0.33169 -1.23749,1.07187 -4.13397,1.63302 -4.73385,1.54401 -2.55178,0.33169 -2.0159,0.39548 -3.65309,0.5449 -3.674842,0.76535 -11.125399,-3.31738 -3.623405,-3.98107 -0.204146,-1.17324 -0.459729,-12.09629 0.61244,-1.17325 z"
       id="path796" />
    <path
       style="fill:#274334;fill-opacity:1;stroke-width:0.288707"
       d="m 118.43541,226.16159 c -12.97769,-1.77972 -14.30885,-2.01287 -15.50939,-2.71643 -1.54112,-0.90316 -2.944009,-2.5445 -4.038977,-4.72548 -0.738913,-1.47178 -0.76569,-1.65869 -0.454985,-3.17578 0.640637,-3.12805 1.075179,-7.48632 0.79614,-7.98494 -0.148896,-0.26606 -0.516436,-1.18285 -0.816756,-2.03732 -0.497372,-1.41511 -0.507731,-1.64525 -0.116234,-2.58224 0.386391,-0.92476 0.382377,-1.10105 -0.03974,-1.74527 -0.417075,-0.63654 -0.430279,-1.04562 -0.118171,-3.66109 0.43522,-3.64715 0.831728,-5.33201 1.474285,-6.2646 1.504218,-2.18317 2.533468,-4.82277 2.740018,-7.02699 0.25041,-2.67224 0.0515,-2.53333 4.61437,-3.22277 1.74668,-0.26392 3.86748,-0.67608 4.7129,-0.9159 0.84542,-0.23983 1.57088,-0.39155 1.61214,-0.33716 0.0413,0.0544 -0.0221,1.35395 -0.14092,2.88791 -0.37372,4.82693 -2.39327,9.8342 -6.40553,15.88183 -0.80807,1.21799 -1.77014,2.35165 -2.13793,2.51923 -0.66695,0.30388 -0.66831,0.31627 -0.51472,4.71442 0.0847,2.42536 0.22499,5.22918 0.31177,6.23072 0.18731,2.16168 -0.26071,1.90559 6.12908,3.50339 5.89329,1.47364 10.17076,2.03968 15.33193,2.02886 4.1708,-0.009 14.15339,-0.64529 14.63058,-0.93293 0.13719,-0.0827 2.88241,-0.62905 6.10049,-1.21412 5.13139,-0.93293 6.19221,-1.22319 8.62457,-2.35984 1.52542,-0.71284 3.25392,-1.59934 3.8411,-1.97001 l 1.0676,-0.67395 0.34082,-3.85438 c 0.56856,-6.4299 0.5759,-6.37647 -1.1997,-8.7367 -3.06043,-4.06812 -5.01216,-9.8833 -6.09948,-18.17347 -0.22615,-1.72424 -0.47948,-3.20329 -0.56295,-3.28676 -0.0835,-0.0835 -1.16283,0.12278 -2.39856,0.45836 -2.233,0.6064 -6.15276,0.89981 -27.95735,2.09277 -7.38134,0.40384 -7.81862,0.34514 -5.08196,-0.68227 1.16605,-0.43776 2.90645,-1.40101 3.86755,-2.14056 1.43902,-1.1073 6.3128,-5.68738 13.35574,-12.55091 0.7812,-0.76129 1.0444,-1.19448 0.81352,-1.33892 -0.23566,-0.14741 0.23245,-1.10574 1.51208,-3.09564 1.01937,-1.58517 2.05125,-3.47184 2.29307,-4.1926 0.30771,-0.91716 1.01171,-1.8703 2.34566,-3.17578 1.04829,-1.02591 2.26843,-2.35439 2.71141,-2.95217 0.72885,-0.98354 0.77546,-1.18455 0.49017,-2.11409 -0.3478,-1.13323 -1.40299,-1.85188 -2.71736,-1.85067 -1.13065,0.001 -3.97772,1.78366 -5.85192,3.66403 -0.86854,0.87139 -1.63019,1.43128 -1.69255,1.24419 -0.0624,-0.1871 0.0311,-0.48471 0.2078,-0.66136 0.17665,-0.17665 0.31639,-1.10719 0.31053,-2.06786 -0.007,-1.10605 0.38741,-3.30119 1.07467,-5.98505 l 1.08532,-4.23838 0.8741,0.1471 c 0.48076,0.0809 2.33237,0.47356 4.1147,0.87257 1.78233,0.39902 3.4063,0.66805 3.60884,0.59785 0.20253,-0.0702 0.87177,0.0478 1.4872,0.26219 0.61542,0.21441 1.60054,0.38984 2.18916,0.38984 0.90064,0 1.2166,0.18216 1.99416,1.14974 0.64147,0.79822 1.11937,1.12922 1.5631,1.08265 0.464,-0.0487 0.66409,0.10641 0.73017,0.56603 0.0952,0.66226 0.89548,1.0312 3.0722,1.41634 0.62723,0.11098 2.77088,1.09088 4.76367,2.17756 1.99279,1.08668 4.24036,2.18209 4.99461,2.43424 1.49995,0.50146 1.55264,0.58117 0.92912,1.40554 -0.23313,0.30823 -0.42388,0.83798 -0.42388,1.17723 0,0.80837 -1.16739,3.65858 -2.46647,6.02197 l -1.03603,1.88482 0.16111,6.87042 c 0.0886,3.77873 0.24193,9.79358 0.34072,13.36633 0.10723,3.87776 0.0386,9.11405 -0.17037,12.99181 -0.66134,12.27452 -0.75668,13.51835 -1.1268,14.7004 -0.24911,0.79556 -0.19101,1.43904 0.29975,3.32013 0.40946,1.56949 0.60578,3.19281 0.59972,4.95885 -0.008,2.37857 -0.0864,2.74894 -0.83152,3.93748 -0.45236,0.72157 -1.53703,1.87778 -2.41037,2.56937 l -1.58789,1.25743 -13.0065,2.9038 -13.0065,2.9038 z"
       id="path12069" />
    <path
       style="fill:#274334;fill-opacity:1;stroke-width:0.288707"
       d="m 185.63865,152.69161 c -1.82607,-0.54227 -4.22956,-1.1338 -5.34108,-1.31452 -1.2768,-0.20759 -2.92456,-0.7764 -4.47496,-1.54477 -1.34971,-0.6689 -4.1942,-1.76291 -6.32111,-2.43114 -2.77973,-0.87334 -4.97578,-1.81763 -7.81004,-3.35831 -2.77484,-1.50837 -4.2429,-2.14334 -4.95546,-2.14334 -1.16242,0 -1.89676,-0.46783 -2.0393,-1.29918 -0.0689,-0.4017 -0.36183,-0.6031 -0.96265,-0.66182 -0.55962,-0.0547 -1.16936,-0.43678 -1.73206,-1.08541 -0.75073,-0.86538 -1.12237,-1.03696 -2.74271,-1.2663 -5.10716,-0.72285 -6.31364,-0.92257 -7.61754,-1.26105 l -1.41261,-0.36669 0.0552,-4.60834 c 0.0303,-2.53458 0.17998,-5.08119 0.33251,-5.65913 l 0.27735,-1.05081 3.2454,-0.12689 c 2.43015,-0.095 3.3599,-0.0305 3.7012,0.25685 0.55202,0.46478 1.76445,0.50203 2.19891,0.0676 0.22911,-0.22911 0.75453,-0.21809 1.90784,0.04 l 1.59166,0.3562 1.13662,-1.19484 c 0.62754,-0.65968 1.40788,-1.19484 1.74224,-1.19484 0.92402,0 2.45746,1.02345 3.05887,2.04154 0.50305,0.85161 0.61746,0.89982 1.72976,0.72903 3.95565,-0.60739 3.94373,-0.60885 5.81038,0.70922 1.57517,1.11225 1.95477,1.24582 4.18626,1.47299 1.3497,0.1374 3.49335,0.37858 4.76366,0.53596 1.27031,0.15738 4.25843,0.28629 6.64026,0.28648 3.87912,3.2e-4 4.63161,0.0855 7.21768,0.81659 l 2.88707,0.81624 3.81043,4.94303 c 2.36581,3.06902 3.92343,5.36267 4.10847,6.04987 0.23108,0.85817 0.17001,1.8505 -0.27185,4.41694 -0.31344,1.82056 -0.57076,3.32697 -0.57181,3.34759 -0.001,0.0206 -0.68398,0.55171 -1.51763,1.18021 -1.0748,0.81031 -2.56561,1.49226 -5.12497,2.34435 -1.9851,0.66089 -3.73899,1.18835 -3.89755,1.17213 -0.15855,-0.0162 -1.78234,-0.47316 -3.60841,-1.01542 z"
       id="path12225" />
    <path
       style="fill:#274334;fill-opacity:1;stroke-width:0.288707"
       d="m 92.842495,179.58686 -5.173556,-1.56092 -1.545594,-1.67908 c -0.850076,-0.92349 -1.656556,-1.93892 -1.792176,-2.25649 -0.135621,-0.31758 -0.340132,-3.3057 -0.45447,-6.64027 l -0.207887,-6.06285 1.073013,-1.39911 c 0.970654,-1.26565 1.058677,-1.52631 0.922729,-2.73244 -0.16473,-1.46147 0.539223,-4.92839 1.691049,-8.32828 0.407279,-1.20219 0.700055,-2.73379 0.700055,-3.66222 0,-0.87771 0.148963,-1.96157 0.331029,-2.40858 0.182066,-0.44701 0.420104,-2.04696 0.528973,-3.55546 0.187352,-2.59594 0.333319,-3.06716 2.72768,-8.80556 1.391355,-3.33457 2.900636,-6.64748 3.353959,-7.36203 1.879914,-2.96321 4.775338,-5.03409 9.913131,-7.09011 l 3.35472,-1.34247 v -0.99478 c 0,-2.30739 1.59769,-3.5314 3.89755,-2.98599 0.63515,0.15063 1.24229,0.27697 1.34918,0.28076 0.16231,0.006 0.79274,-0.87381 3.18089,-4.43795 0.13065,-0.19497 0.56636,-0.12273 1.26277,0.20936 0.96012,0.45785 1.11106,0.46383 1.55551,0.0616 0.586,-0.53033 1.45721,-0.58816 1.45721,-0.0967 0,0.19179 -0.48719,0.84998 -1.08265,1.46265 l -1.08265,1.11394 1.01048,0.88703 c 2.42276,2.12678 2.80862,2.49277 3.33894,3.16697 0.40713,0.51758 1.05622,0.81017 2.37128,1.06889 0.99589,0.19593 2.70383,0.73629 3.79543,1.20081 l 1.98472,0.84457 1.65013,-0.56773 c 0.90757,-0.31225 2.81587,-1.3166 4.24066,-2.23189 2.09194,-1.34387 3.02549,-2.19589 4.85042,-4.42684 l 2.25989,-2.76267 -0.58145,-0.91834 -0.58145,-0.91835 h 1.49381 c 1.32785,0 1.6814,0.14435 3.1822,1.29919 1.15724,0.89047 1.96699,1.29918 2.57399,1.29918 0.58864,0 1.00744,0.20167 1.24894,0.60142 0.19983,0.33079 0.8219,0.8385 1.38238,1.12825 1.46212,0.75588 3.6676,2.64228 4.47027,3.82351 0.94921,1.39688 1.51447,1.55043 2.44075,0.663 0.86758,-0.8312 1.85939,-0.91968 4.45832,-0.39774 1.44658,0.29052 1.81195,0.51156 2.86305,1.7321 1.03356,1.20018 1.3556,1.39911 2.26512,1.39924 0.95405,1.2e-4 1.0934,0.10055 1.39107,1.00248 0.264,0.79996 0.54542,1.06196 1.39374,1.29758 0.58462,0.16237 1.22725,0.29595 1.42808,0.29683 0.20082,9e-4 0.60694,0.39924 0.90249,0.88523 1.02172,1.68009 3.81098,4.60182 4.39318,4.60182 0.31412,0 1.18268,0.56795 1.93013,1.26213 0.74744,0.69417 1.66109,1.35562 2.03034,1.46989 1.35951,0.42074 0.30404,0.46289 -4.02877,0.16089 -7.91162,-0.55145 -9.83481,-0.83768 -10.64488,-1.58432 -1.69937,-1.56633 -3.48237,-1.97666 -6.39315,-1.47128 -1.21687,0.21127 -1.35871,0.17627 -1.53487,-0.37873 -0.28928,-0.91146 -2.43961,-2.05695 -3.86132,-2.05695 -0.97431,0 -1.4189,0.19704 -2.35706,1.0446 -1.1307,1.02152 -1.18454,1.03748 -2.43696,0.72212 -0.87521,-0.22038 -1.52088,-0.23118 -2.03926,-0.0341 -0.51306,0.19507 -0.9408,0.19087 -1.32167,-0.013 -0.34801,-0.18626 -2.6291,-0.27478 -5.97176,-0.23175 -4.58019,0.059 -5.97359,-0.0317 -9.09674,-0.59156 l -3.68808,-0.66118 -1.79735,0.85825 c -1.89876,0.90667 -15.18957,4.68071 -16.48376,4.68071 -0.64625,0 -0.75943,0.12531 -0.75943,0.84075 0,0.75633 -0.11632,0.8604 -1.15859,1.03649 -1.32465,0.22379 -1.80749,0.87045 -1.6736,2.24142 0.0692,0.70867 0.36697,1.10205 1.31465,1.73675 0.67385,0.45131 1.68907,0.89585 2.25606,0.98785 0.59602,0.0967 1.39494,0.53135 1.8939,1.03031 0.8349,0.83489 0.92602,0.857 2.79631,0.67849 1.06332,-0.1015 2.64785,-0.30283 3.52119,-0.44742 5.91304,-0.97894 7.53819,-1.11849 9.24586,-0.79396 0.94875,0.1803 1.72501,0.42505 1.72501,0.54388 0,0.11883 -0.30983,1.03921 -0.68852,2.04528 -0.37868,1.00607 -0.98204,3.12021 -1.3408,4.69808 -0.35876,1.57787 -0.75914,3.00687 -0.88975,3.17556 -0.13061,0.16868 -1.15702,2.15906 -2.28093,4.42307 -3.25133,6.54953 -4.00096,7.33554 -7.07005,7.41324 -2.68126,0.0679 -5.38405,0.53874 -6.49591,1.13168 -0.55576,0.29638 -1.42792,0.51263 -1.93812,0.48056 -0.5102,-0.0321 -1.40302,0.14031 -1.98403,0.38307 -0.58101,0.24276 -1.68764,0.44139 -2.45917,0.44139 -1.714,0 -1.60894,0.32787 -1.98893,-6.2072 -0.39594,-6.80951 -0.36168,-10.71348 0.14157,-16.1308 0.2379,-2.56086 0.48178,-5.20826 0.54195,-5.88312 0.10078,-1.13011 0.0552,-1.227 -0.57689,-1.227 -0.55442,0 -0.68773,0.15257 -0.69375,0.79394 -0.004,0.43667 -0.1342,2.09313 -0.28912,3.68102 -0.15491,1.58789 -0.41227,4.26725 -0.57191,5.95414 -0.19321,2.04178 -0.19503,5.17839 -0.005,9.38298 0.37273,8.2661 0.55963,10.14663 1.05797,10.64497 0.52498,0.52498 4.25675,0.42425 5.30138,-0.14311 0.39698,-0.2156 1.13946,-0.36493 1.64997,-0.33184 0.51051,0.0331 1.67852,-0.25625 2.59559,-0.64298 1.19109,-0.50229 1.81252,-0.62548 2.17541,-0.43127 0.33254,0.17797 0.72134,0.1577 1.12566,-0.0587 1.27389,-0.68177 2.19913,-0.79808 3.00845,-0.37821 0.90994,0.47209 1.56531,0.33704 2.29906,-0.47375 0.83776,-0.92571 1.58122,-0.74327 1.58122,0.38803 0,0.52694 0.20757,1.66373 0.46128,2.52619 0.60718,2.06414 2.57412,4.02602 4.76646,4.75419 l 1.55092,0.51514 -4.03892,3.8774 c -2.22141,2.13258 -4.68852,4.36663 -5.48246,4.96457 -1.57891,1.18912 -5.41327,2.81806 -8.80556,3.74084 -1.77272,0.48222 -9.47142,1.86638 -12.414409,2.23201 -0.396972,0.0493 -3.049868,-0.61275 -5.895324,-1.47126 z"
       id="path12264" />
    <path
       style="fill:#274334;fill-opacity:1;stroke-width:0.288707"
       d="m 118.51425,215.8155 c -3.32341,-0.48073 -11.77061,-2.40693 -12.48112,-2.84605 -0.23111,-0.14283 -0.40683,-1.96019 -0.54291,-5.61502 -0.17272,-4.63882 -0.14149,-5.40383 0.22063,-5.40383 0.43989,0 3.17197,-3.9817 4.95246,-7.21768 2.18274,-3.96703 3.9534,-9.79967 3.9534,-13.0227 v -1.41265 l 2.67054,-3.3e-4 c 5.5744,-7e-4 31.04292,-1.60288 32.77653,-2.06192 0.67941,-0.1799 1.30488,-0.25749 1.38993,-0.17244 0.0851,0.0851 0.35287,1.49961 0.59514,3.14344 0.6203,4.20881 2.21219,10.17472 3.42514,12.83635 0.56614,1.24232 1.70712,3.17255 2.53551,4.2894 l 1.50617,2.03064 -0.21638,4.0419 c -0.119,2.22304 -0.28745,4.34397 -0.37433,4.71317 -0.12324,0.52373 -0.93291,1.04115 -3.68367,2.35404 -3.25923,1.55557 -3.90761,1.75222 -8.5781,2.60168 -8.67748,1.57824 -9.53101,1.69118 -15.15844,2.00575 -6.96126,0.38913 -8.72452,0.35333 -12.9905,-0.26375 z"
       id="path12303" />
    <path
       style="fill:#b18c81;fill-opacity:1;stroke-width:0.288707"
       d="m 127.30417,163.88194 c -1.84912,-1.18916 -2.47075,-1.9897 -3.01706,-3.88537 -0.83937,-2.91254 -0.47367,-4.48415 2.32995,-10.01324 1.82863,-3.60629 2.59388,-5.48039 3.1497,-7.71363 0.40381,-1.62247 1.06836,-3.85147 1.47678,-4.95333 l 0.74258,-2.00338 1.78092,0.59184 c 0.97951,0.32551 1.80933,0.61247 1.84403,0.63771 0.0347,0.0252 -0.45137,1.9879 -1.08018,4.36149 -0.64442,2.43256 -1.14836,5.00848 -1.15493,5.90352 -0.007,0.89051 -0.18763,1.82008 -0.41234,2.11658 -0.55334,0.73013 -0.0682,2.0309 0.92659,2.48413 0.73228,0.33366 0.85774,0.25748 2.73388,-1.65995 2.25887,-2.30858 4.61915,-3.70926 5.76561,-3.42152 1.43633,0.3605 1.19527,0.95205 -1.62216,3.98059 -1.95316,2.09952 -2.80159,3.24308 -3.04753,4.10763 -0.18746,0.65896 -1.33749,2.69216 -2.55562,4.51823 -1.65096,2.47492 -2.50542,3.48082 -3.35644,3.95135 -0.62791,0.34716 -1.24083,0.89931 -1.36205,1.227 -0.31731,0.85775 -1.59623,0.76427 -3.14173,-0.22965 z"
       id="path32932" />
    <path
       style="fill:#c59f92;fill-opacity:1;stroke-width:0.288707"
       d="m 137.42457,135.51582 c -0.71455,-0.11756 -2.26385,-0.54818 -3.44288,-0.95692 -1.17903,-0.40874 -2.57111,-0.74317 -3.09351,-0.74317 -0.5224,0 -1.54447,-0.20189 -2.27128,-0.44865 -0.7268,-0.24675 -1.56073,-0.3727 -1.85318,-0.27988 -0.29244,0.0928 -1.61862,0.30915 -2.94706,0.48073 -4.45547,0.57548 -5.58244,0.74907 -7.2556,1.11755 -1.506,0.33166 -1.71904,0.31719 -2.23748,-0.15198 -0.31515,-0.28521 -0.57299,-0.76352 -0.57299,-1.06292 0,-0.45199 -0.19177,-0.53305 -1.13013,-0.47768 -1.61426,0.0953 -3.48919,-0.80483 -3.48919,-1.67503 0,-0.37285 0.1624,-0.67864 0.36089,-0.67953 1.14879,-0.005 2.49472,-0.63656 2.57937,-1.21009 0.0811,-0.54945 0.947,-0.85277 7.84355,-2.74753 4.73381,-1.30058 8.0789,-2.37131 8.59096,-2.74989 l 0.83857,-0.61999 4.97828,0.71873 c 4.57567,0.6606 4.97133,0.76434 4.8924,1.28272 -0.0472,0.3102 -0.14158,2.75869 -0.20967,5.44109 -0.0681,2.68241 -0.15936,4.8994 -0.20283,4.92664 -0.0435,0.0272 -0.66367,-0.0466 -1.37822,-0.1642 z"
       id="path32971" />
    <path
       style="fill:#c59f92;fill-opacity:1;stroke-width:0.288707"
       d="m 127.30417,163.59624 c -1.66463,-1.06662 -2.18227,-1.67533 -2.71947,-3.19791 -1.00661,-2.85304 -0.49432,-5.07871 2.5966,-11.28113 0.83088,-1.66728 1.83723,-4.07077 2.23634,-5.34108 0.39911,-1.27031 1.1444,-3.64131 1.6562,-5.2689 0.5118,-1.62759 1.0133,-2.95914 1.11445,-2.95901 0.29711,3.8e-4 2.88381,1.01554 3.07511,1.20684 0.0963,0.0963 -0.1551,1.3906 -0.55859,2.87629 -0.40349,1.48569 -0.98967,4.13035 -1.30261,5.87703 -0.31294,1.74667 -0.6539,3.52529 -0.75768,3.95248 -0.14642,0.60269 -0.0231,0.94227 0.55031,1.51571 0.40645,0.40646 0.94657,0.73901 1.20025,0.73901 0.25369,0 1.4081,-0.8962 2.56537,-1.99155 2.20102,-2.08328 4.01002,-3.20518 5.16816,-3.20518 1.50269,0 1.24011,0.58234 -1.843,4.08739 -1.06956,1.21593 -2.40817,3.13438 -2.97469,4.26321 -1.31331,2.61685 -3.6461,6.07873 -4.81072,7.13912 -0.49667,0.45223 -1.2908,1.17951 -1.76474,1.61617 -1.09203,1.00618 -1.82606,1.00009 -3.43129,-0.0285 z"
       id="path42290" />
    <path
       style="fill:#11141e;fill-opacity:1;stroke-width:0.408293"
       d="m 96.886125,254.26475 c -0.39831,-1.87807 -0.335367,-32.67606 0.07004,-34.27248 l 0.291272,-1.14697 0.765114,1.48348 c 1.011501,1.9612 4.202599,4.73083 6.052199,5.25284 5.69292,1.6067 20.22652,3.65057 26.38501,3.71055 2.9078,0.0283 5.81826,-0.39958 13.94669,-2.05041 5.64963,-1.14741 11.32296,-2.44776 12.60741,-2.88967 3.92059,-1.34888 6.65551,-3.86238 7.70792,-7.08388 0.19011,-0.58195 0.37665,-0.65409 0.79455,-0.30727 1.027,0.85234 1.44886,17.78381 0.81753,32.81258 l -0.25298,6.02233 H 152.33353 138.5962 l -2.63448,-8.77831 -2.63447,-8.77831 h -1.23846 c -1.57824,0 -1.88016,0.4997 -3.69633,6.11769 -0.80433,2.48802 -2.17785,6.07961 -3.05228,7.98131 l -1.58988,3.45762 H 110.48058 97.210846 Z"
       id="path48567" />
    <path
       style="fill:#11141e;fill-opacity:1;stroke-width:0.408293"
       d="m 97.300013,255.28549 c -0.434306,-0.67104 -0.693251,-25.33247 -0.328119,-31.24941 l 0.284373,-4.60825 1.111112,1.7502 c 1.17725,1.85438 3.359721,3.72914 5.120571,4.39862 3.89621,1.48133 19.76186,3.7057 26.55352,3.7228 5.10953,0.0129 9.38644,-0.66009 21.4354,-3.37283 7.96693,-1.7937 11.22105,-3.64816 12.8879,-7.34457 0.59827,-1.32673 0.79863,-1.50054 1.10293,-0.95678 0.93417,1.66926 1.25083,26.4346 0.45545,35.61875 l -0.221,2.55183 h -13.42806 -13.42806 l -1.02635,-3.36842 c -0.56449,-1.85263 -1.73933,-5.75694 -2.61075,-8.67623 l -1.58441,-5.30782 -1.41818,-0.12272 c -0.80789,-0.0699 -1.60609,0.1058 -1.85484,0.4083 -0.24017,0.29205 -1.08388,2.39387 -1.87492,4.67069 -0.79104,2.27683 -2.20922,5.9974 -3.15152,8.26794 l -1.71327,4.12826 h -12.99073 c -9.94422,0 -13.068194,-0.11969 -13.321047,-0.51036 z"
       id="path48606" />
    <path
       style="fill:#000000;fill-opacity:1;stroke-width:0.408293"
       d="m 97.300013,255.28549 c -0.430252,-0.66478 -0.694996,-26.20801 -0.328131,-31.65898 l 0.282755,-4.20125 1.146463,1.80779 c 1.6479,2.59846 4.21701,4.20436 8.23902,5.15004 5.86417,1.37881 14.58823,2.50993 21.15573,2.74295 6.95293,0.24669 9.66347,-0.10797 22.36454,-2.92627 9.03719,-2.0053 12.50831,-3.85652 14.1793,-7.56209 0.61696,-1.36818 0.82461,-1.55455 1.12801,-1.01241 0.93417,1.66926 1.25083,26.4346 0.45545,35.61875 l -0.221,2.55183 h -13.42806 -13.42806 l -1.02635,-3.36842 c -0.56449,-1.85263 -1.73933,-5.75694 -2.61075,-8.67623 l -1.58441,-5.30782 -1.46277,-0.12538 c -1.75617,-0.15052 -2.03606,0.28556 -4.22029,6.57534 -0.79563,2.29112 -2.10332,5.68146 -2.90599,7.53409 l -1.45939,3.36842 H 110.6032 c -9.92993,0 -13.05035,-0.11971 -13.303187,-0.51036 z"
       id="path48645" />
    <path
       style="fill:#120b0a;fill-opacity:1;stroke-width:0.144354"
       d="m 129.5573,114.38286 c -1.18881,-0.55004 -2.02187,-0.82103 -3.31465,-1.07825 -1.37703,-0.27398 -1.8003,-0.41711 -2.08985,-0.70665 l -0.36308,-0.36308 4.76039,0.0196 c 2.61821,0.0108 5.53911,0.0595 6.49089,0.10826 l 1.7305,0.0887 -1.36962,0.87693 c -1.16129,0.74355 -3.58724,1.79962 -4.11512,1.7914 -0.0779,-0.001 -0.85612,-0.33281 -1.72946,-0.73688 z"
       id="path48721" />
    <path
       style="fill:#120b0a;fill-opacity:1;stroke-width:0.288707"
       d="m 145.97854,74.269895 c -0.27584,-1.151219 -1.04663,-3.197431 -1.71286,-4.547136 -1.39688,-2.829925 -1.81311,-3.140575 -6.25701,-4.669863 -2.60686,-0.897102 -2.96645,-0.946514 -6.93566,-0.953041 -3.85628,-0.0063 -4.30004,0.04855 -5.62979,0.696447 -0.79394,0.386833 -2.20889,1.491137 -3.14432,2.454011 -1.69053,1.740114 -1.9422,1.621748 -0.88155,-0.414625 0.54723,-1.050656 5.53829,-5.864262 7.0573,-6.806381 1.72979,-1.072854 5.03855,-1.297287 8.13882,-0.552056 2.75015,0.661072 3.56657,1.160336 4.47629,2.737367 0.41275,0.715516 1.45219,2.36426 2.30987,3.663875 2.04571,3.099795 2.9535,5.459282 3.17299,8.247049 0.0969,1.230613 0.1157,2.237479 0.0418,2.237479 -0.0739,0 -0.36004,-0.941906 -0.63588,-2.093126 z"
       id="path54842" />
    <path
       style="fill:#120b0a;fill-opacity:1;stroke-width:0.288707"
       d="m 145.54804,72.465311 c -0.85239,-2.693173 -2.20795,-4.985202 -3.43669,-5.810874 -0.51865,-0.348517 -2.07767,-1.063726 -3.46448,-1.589354 -2.48969,-0.943637 -2.58337,-0.955791 -7.4295,-0.9639 -5.61428,-0.0094 -5.81216,0.04986 -8.42794,2.523754 -1.60378,1.516791 -1.79837,1.562412 -1.12706,0.264237 0.49901,-0.964982 5.1509,-5.484217 6.70136,-6.510259 2.72955,-1.806331 9.6925,-1.267662 11.72252,0.906879 1.12164,1.2015 4.57494,6.874161 5.34439,8.779131 0.60168,1.489595 1.21855,4.574809 0.91188,4.560673 -0.0618,-0.0029 -0.41933,-0.974978 -0.79448,-2.160287 z"
       id="path54881" />
    <path
       style="fill:#120b0a;fill-opacity:1;stroke-width:0.288707"
       d="m 145.85446,73.318125 c -0.57108,-2.135204 -2.30517,-5.512921 -3.22964,-6.290814 -1.03308,-0.869281 -4.94565,-2.420447 -7.11821,-2.822067 -0.86207,-0.159362 -3.28412,-0.242442 -5.38233,-0.184623 -4.38039,0.120707 -4.9062,0.307399 -7.33485,2.604316 -1.60378,1.516791 -1.79837,1.562412 -1.12706,0.264237 0.49901,-0.964982 5.1509,-5.484217 6.70136,-6.510259 2.7294,-1.806233 9.68559,-1.268253 11.72612,0.906879 1.16731,1.244307 4.76153,7.180347 5.43091,8.969413 0.56433,1.508305 1.09476,4.375572 0.80947,4.375572 -0.0686,0 -0.28268,-0.590694 -0.47577,-1.312654 z"
       id="path54920" />
    <path
       style="fill:#c59f92;fill-opacity:1;stroke-width:0.288707"
       d="m 121.83439,110.15391 -1.01048,-0.83842 0.86612,-0.90448 c 0.80293,-0.83849 0.87981,-1.10851 1.05372,-3.70095 0.3982,-5.935863 0.30423,-7.937039 -0.45164,-9.618368 -0.38341,-0.852829 -0.91795,-2.565661 -1.18786,-3.806292 -0.40918,-1.880735 -0.56925,-2.222498 -0.96296,-2.056 -1.40236,0.593049 -1.71725,0.497268 -2.33296,-0.70962 -0.48959,-0.959673 -0.61056,-1.758632 -0.64067,-4.231372 -0.0225,-1.846314 0.0857,-3.171174 0.27445,-3.359884 0.43485,-0.434848 1.2165,-0.07218 1.2165,0.564422 0,0.829178 0.57671,1.263576 1.04965,0.790633 0.25974,-0.259731 0.39583,-1.113784 0.3996,-2.507627 0.007,-2.709203 0.42655,-5.58816 1.17027,-8.036694 0.75481,-2.485027 2.73046,-4.801094 4.9451,-5.797164 1.32167,-0.594443 1.96664,-0.686831 4.74361,-0.679492 3.19753,0.0085 3.23405,0.01642 7.14236,1.558433 2.48198,0.979262 4.07026,1.772222 4.31372,2.153654 0.21193,0.332044 0.9279,2.196668 1.59103,4.14361 1.19229,3.50051 1.20571,3.585497 1.20571,7.638672 v 4.098778 l 1.25221,-1.228947 c 1.10423,-1.083725 1.29644,-1.17564 1.62659,-0.777836 0.30814,0.371292 0.28819,0.897378 -0.11279,2.973255 -0.94364,4.8852 -1.69126,6.381849 -2.72198,5.44906 -0.75251,-0.681013 -0.82248,-0.621098 -1.0492,0.898453 -0.24599,1.648702 -0.85215,3.175255 -1.57472,3.965781 -0.39281,0.429752 -0.58277,1.258939 -0.72848,3.179719 -0.1084,1.429096 -0.31824,3.068626 -0.46631,3.643376 -0.27512,1.06796 0.21241,2.8683 0.89017,3.28718 0.17253,0.10663 -0.53102,1.14867 -1.65569,2.45228 l -1.95571,2.26685 -7.93945,0.0137 -7.93944,0.0137 z"
       id="path64869" />
    <path
       style="fill:none;fill-rule:evenodd;stroke:#000000;stroke-width:1px;stroke-linecap:butt;stroke-linejoin:miter;stroke-opacity:1"
       d="m 165.689,128.73884 15.61642,11.94178"
       id="path117629"
       inkscape:connector-type="polyline"
       inkscape:connector-curvature="0" />
    <path
       style="display:inline;fill:none;fill-rule:evenodd;stroke:#000000;stroke-width:1px;stroke-linecap:butt;stroke-linejoin:miter;stroke-opacity:1"
       d="m 172.73126,129.35167 13.16746,10.30862"
       id="path117631"
       inkscape:connector-type="polyline"
       inkscape:connector-curvature="0" />
    <path
       style="fill:none;fill-rule:evenodd;stroke:#000000;stroke-width:1px;stroke-linecap:butt;stroke-linejoin:miter;stroke-opacity:1"
       d="m 181.81699,131.08692 7.95972,5.40949"
       id="path117633"
       inkscape:connector-type="polyline"
       inkscape:connector-curvature="0" />
    <path
       style="fill:none;fill-rule:evenodd;stroke:#000000;stroke-width:1px;stroke-linecap:butt;stroke-linejoin:miter;stroke-opacity:1"
       d="m 103.44594,127.62573 -0.14435,-6.78462"
       id="path117643"
       inkscape:connector-type="polyline"
       inkscape:connector-curvature="0" />
    <path
       style="fill:none;fill-rule:evenodd;stroke:#000000;stroke-width:1px;stroke-linecap:butt;stroke-linejoin:miter;stroke-opacity:1"
       d="m 101.85862,128.78055 -4.764231,-5.41297"
       id="path117645"
       inkscape:connector-type="polyline"
       inkscape:connector-curvature="0" />
    <path
       style="fill:none;fill-rule:evenodd;stroke:#000000;stroke-width:1px;stroke-linecap:butt;stroke-linejoin:miter;stroke-opacity:1"
       d="M 102.21866,131.52327 94.062118,128.7081"
       id="path117647"
       inkscape:connector-type="polyline"
       inkscape:connector-curvature="0" />
    <path
       style="fill:none;fill-rule:evenodd;stroke:#000000;stroke-width:1px;stroke-linecap:butt;stroke-linejoin:miter;stroke-opacity:1"
       d="m 101.64124,132.96624 -7.93916,0.72177"
       id="path117649"
       inkscape:connector-type="polyline"
       inkscape:connector-curvature="0" />
    <path
       style="fill:none;fill-rule:evenodd;stroke:#000000;stroke-width:1px;stroke-linecap:butt;stroke-linejoin:miter;stroke-opacity:1"
       d="m 104.96222,129.5745 3.24795,-5.9185"
       id="path117651"
       inkscape:connector-type="polyline"
       inkscape:connector-curvature="0" />
    <path
       style="fill:none;fill-rule:evenodd;stroke:#000000;stroke-width:1px;stroke-linecap:butt;stroke-linejoin:miter;stroke-opacity:1"
       d="m 102.14592,164.94083 2.81489,-3.4642"
       id="path117653"
       inkscape:connector-type="polyline"
       inkscape:connector-curvature="0" />
    <path
       style="fill:none;fill-rule:evenodd;stroke:#000000;stroke-width:1px;stroke-linecap:butt;stroke-linejoin:miter;stroke-opacity:1"
       d="m 105.03383,165.87941 3.03086,-4.54742"
       id="path117655"
       inkscape:connector-type="polyline"
       inkscape:connector-curvature="0" />
    <path
       style="fill:none;fill-rule:evenodd;stroke:#000000;stroke-width:1px;stroke-linecap:butt;stroke-linejoin:miter;stroke-opacity:1"
       d="m 108.20877,165.6626 2.23776,-4.40306"
       id="path117657"
       inkscape:connector-type="polyline"
       inkscape:connector-curvature="0" />
    <path
       style="fill:none;fill-rule:evenodd;stroke:#000000;stroke-width:1px;stroke-linecap:butt;stroke-linejoin:miter;stroke-opacity:1"
       d="m 111.31265,164.50777 2.3105,-4.18597"
       id="path117659"
       inkscape:connector-type="polyline"
       inkscape:connector-curvature="0" />
    <path
       style="fill:none;fill-rule:evenodd;stroke:#000000;stroke-width:1px;stroke-linecap:butt;stroke-linejoin:miter;stroke-opacity:1"
       d="m 147.0311,158.66986 8.48963,-16.26535"
       id="path117661"
       inkscape:connector-type="polyline"
       inkscape:connector-curvature="0" />
    <path
       style="fill:none;fill-rule:evenodd;stroke:#000000;stroke-width:1px;stroke-linecap:butt;stroke-linejoin:miter;stroke-opacity:1"
       d="m 144.13896,147.50837 3.87958,-9.23764"
       id="path117663"
       inkscape:connector-type="polyline"
       inkscape:connector-curvature="0" />
    <path
       style="fill:none;fill-rule:evenodd;stroke:#000000;stroke-width:1px;stroke-linecap:butt;stroke-linejoin:miter;stroke-opacity:1"
       d="m 161.72967,179.08612 -4.55658,17.02638"
       id="path117769"
       inkscape:connector-type="polyline"
       inkscape:connector-curvature="0" />
    <path
       style="fill:none;fill-rule:evenodd;stroke:#000000;stroke-width:1px;stroke-linecap:butt;stroke-linejoin:miter;stroke-opacity:1"
       d="m 160.82815,177.77293 -4.89952,13.2179"
       id="path117771"
       inkscape:connector-type="polyline"
       inkscape:connector-curvature="0" />
    <path
       style="fill:#000000;fill-opacity:1;stroke-width:0.102073"
       d="m 96.105567,256.76555 c -0.02889,-0.14035 -0.280803,-1.78217 -0.559806,-3.64848 l -0.507278,-3.3933 0.05732,-9.16173 c 0.05724,-9.15001 0.05768,-9.16498 0.340861,-11.71355 0.278409,-2.50564 0.281663,-2.60499 0.179719,-5.48767 l -0.103824,-2.93583 0.727364,-1.71777 c 0.91895,-2.17024 1.225519,-3.4779 1.737495,-7.41126 l 0.384766,-2.95604 -0.688166,-1.59957 c -0.582233,-1.35334 -0.698979,-1.72353 -0.758403,-2.40475 -0.06464,-0.74104 -0.04594,-0.86775 0.23485,-1.59087 l 0.305087,-0.78569 -0.299531,-0.4073 c -0.467221,-0.63532 -0.473433,-1.28962 -0.04368,-4.60118 0.23343,-1.79876 0.487282,-3.2854 0.70673,-4.13883 0.308519,-1.19983 0.403222,-1.42236 0.955688,-2.24561 0.337278,-0.50259 0.986468,-1.71763 1.442641,-2.70009 l 0.82941,-1.78628 0.25537,-2.13776 c 0.14045,-1.17577 0.24031,-2.15282 0.22191,-2.17122 -0.0184,-0.0184 -0.71766,0.11027 -1.553894,0.28595 -1.272802,0.26739 -1.58693,0.30193 -1.928726,0.21209 -7.017844,-1.84468 -10.297741,-2.78409 -10.665953,-3.05487 -0.317145,-0.23324 -3.522647,-3.65313 -4.046589,-4.31724 -0.06383,-0.0809 -0.148248,-0.34231 -0.1876,-0.58091 l -0.07155,-0.43381 h 0.460192 c 0.418471,0 0.465992,0.0255 0.524162,0.2807 0.03785,0.16608 0.765126,1.04856 1.781065,2.16115 l 1.717096,1.88044 3.203121,0.95765 c 1.761717,0.52671 4.209385,1.25463 5.439262,1.6176 l 2.23614,0.65994 1.716794,-0.35828 c 0.94424,-0.19706 2.51023,-0.47772 3.47997,-0.62369 0.96974,-0.14598 2.29462,-0.37312 2.94417,-0.50477 0.64955,-0.13165 1.68305,-0.29386 2.29665,-0.36048 0.90249,-0.098 1.60323,-0.27628 3.66749,-0.93325 1.4035,-0.44668 2.98819,-1.00984 3.52153,-1.25145 0.53333,-0.24162 1.40181,-0.594 1.92995,-0.78307 0.67585,-0.24195 1.09911,-0.46638 1.42903,-0.75775 0.25782,-0.22769 0.62953,-0.52293 0.82602,-0.6561 0.1965,-0.13316 0.63992,-0.48658 0.98539,-0.78538 0.61582,-0.53262 0.64075,-0.54326 1.27262,-0.54326 h 0.64449 l -0.90446,0.8421 c -0.49745,0.46316 -1.04716,0.93104 -1.22158,1.03974 -0.17442,0.1087 -0.60414,0.44554 -0.95493,0.74854 -0.57119,0.49335 -0.87506,0.64484 -2.9091,1.45027 -1.2492,0.49465 -2.46649,0.95743 -2.70509,1.02839 -0.2386,0.071 -0.43381,0.16768 -0.43381,0.21493 0,0.2987 10.36926,-0.17549 26.18182,-1.19729 l 8.77831,-0.56725 1.78165,-0.55096 c 0.9799,-0.30303 1.79096,-0.54123 1.80234,-0.52932 0.0114,0.0119 0.0737,0.57284 0.13848,1.24653 0.36275,3.77209 0.99973,7.1793 2.06094,11.02392 0.69342,2.51217 0.92772,3.20219 1.5483,4.5597 0.40218,0.87977 0.73825,1.59173 0.74681,1.58214 0.009,-0.01 0.94161,-3.48538 2.07343,-7.72398 1.13181,-4.23859 2.07953,-7.78167 2.10604,-7.87351 0.0409,-0.14163 0.10966,-0.15136 0.45332,-0.0641 0.22281,0.0566 0.40511,0.16272 0.40511,0.23593 0,0.0732 -0.97186,3.75375 -2.15969,8.17897 -1.18783,4.42523 -2.17859,8.1607 -2.20169,8.30105 -0.0334,0.20278 0.25468,0.64298 1.40268,2.14354 l 1.44468,1.88836 -0.0562,2.19458 c -0.0473,1.84728 -0.4965,7.78138 -0.61442,8.11697 -0.0894,0.25441 -2.48095,1.56093 -5.01153,2.73783 l -2.75598,1.28172 -4.08293,0.71759 c -2.24562,0.39468 -5.16236,0.94833 -6.48166,1.23035 -2.3679,0.50616 -2.45382,0.51663 -6.68581,0.81453 -4.69724,0.33065 -10.89098,0.56949 -12.09569,0.46641 -0.42105,-0.036 -2.35024,-0.27238 -4.28708,-0.52525 -3.39488,-0.44323 -3.66104,-0.49459 -7.40032,-1.42811 -4.45208,-1.11148 -6.0664,-1.58808 -6.317,-1.86499 -0.15685,-0.17332 -0.19891,-0.77552 -0.37263,-5.33533 -0.1077,-2.82697 -0.19683,-5.52021 -0.19807,-5.98498 l -0.002,-0.84502 0.60842,-0.26386 c 0.59374,-0.2575 0.63499,-0.30232 1.70973,-1.85771 0.60572,-0.87661 1.79849,-2.80557 2.6506,-4.28657 1.48663,-2.5838 1.58878,-2.79858 2.52544,-5.31003 0.8258,-2.21417 1.0315,-2.89211 1.33552,-4.4015 0.31478,-1.5628 0.36757,-2.0473 0.4254,-3.90431 0.0363,-1.16606 0.0455,-2.1201 0.0204,-2.1201 -0.0251,0 -0.71715,0.22498 -1.53795,0.49995 -1.07683,0.36075 -1.84317,0.54652 -2.75216,0.66715 -0.69288,0.0919 -1.71911,0.25659 -2.28051,0.36585 -0.5614,0.10926 -1.77175,0.31126 -2.68966,0.44888 -0.9179,0.13762 -1.68624,0.26754 -1.70741,0.28871 -0.0212,0.0212 -0.17124,1.11513 -0.33348,2.43102 l -0.29499,2.39254 -0.7917,1.68421 c -0.43543,0.92631 -1.08981,2.15539 -1.454171,2.73129 -0.599895,0.94815 -0.69448,1.17477 -1.001174,2.39872 -0.353085,1.40909 -0.965474,5.83338 -0.9652,6.97323 1.02e-4,0.54468 0.04355,0.68103 0.357405,1.12248 0.196492,0.27637 0.357257,0.55374 0.357257,0.61637 0,0.0626 -0.141882,0.45321 -0.315293,0.86795 -0.478212,1.14371 -0.406145,1.7312 0.459855,3.74872 0.369613,0.86109 0.671921,1.71085 0.671794,1.88835 -5.1e-4,0.74529 -0.737333,5.92549 -1.031634,7.25306 l -0.319155,1.4397 0.866441,1.78628 c 0.818181,1.68679 0.922091,1.84757 1.865495,2.88662 0.88586,0.97566 1.14171,1.1863 2.2581,1.85911 l 1.25904,0.75878 14.16341,1.94914 c 8.74365,1.20328 14.30904,1.92698 14.54399,1.89123 0.68821,-0.10472 25.7182,-5.67064 25.84833,-5.7479 0.0699,-0.0415 0.86607,-0.64351 1.76927,-1.33781 l 1.64217,-1.26236 0.71484,-1.19549 0.71485,-1.19549 0.15411,-1.72716 c 0.14403,-1.6142 0.14176,-1.82729 -0.0347,-3.25825 -0.10382,-0.84211 -0.39899,-2.39275 -0.65593,-3.44587 l -0.46718,-1.91476 0.36251,-1.14744 c 0.35352,-1.119 0.36081,-1.17553 0.29418,-2.28109 -0.0659,-1.09305 -0.0586,-1.15293 0.20428,-1.67162 0.26234,-0.51771 0.26856,-0.568 0.16516,-1.33627 -0.11882,-0.88288 -0.0723,-2.04086 0.34523,-8.58984 0.23015,-3.6101 0.25572,-4.69366 0.25719,-10.8986 9.2e-4,-3.78947 0.0293,-6.9933 0.0632,-7.11962 0.0504,-0.18818 0.13315,-0.22966 0.45793,-0.22966 h 0.39639 v 6.93849 c 0,6.50186 -0.0188,7.24217 -0.29854,11.76396 -0.44065,7.12233 -0.44296,7.18244 -0.31327,8.15607 0.11527,0.86531 0.11247,0.89046 -0.1589,1.42598 -0.26629,0.5255 -0.27374,0.58457 -0.20692,1.64056 0.0673,1.06284 0.0586,1.12922 -0.2901,2.23048 l -0.35941,1.13504 0.46094,1.90654 c 0.26099,1.07951 0.53506,2.54858 0.6318,3.38661 l 0.17086,1.48006 1.25354,1.55227 1.25354,1.55226 3.1e-4,1.81616 c 2e-4,1.07173 0.16796,4.2219 0.40934,7.68537 l 0.40905,5.86922 -0.15285,2.44976 c -0.0859,1.3769 -0.22246,6.73949 -0.31178,12.24481 -0.0874,5.38728 -0.16838,9.80417 -0.17994,9.81533 -0.0115,0.0111 -6.67483,0.0359 -14.80728,0.055 l -14.78628,0.0348 -2.66344,-8.75279 -2.66345,-8.75279 h -0.47796 -0.47797 l -0.40781,0.689 c -0.22574,0.3814 -0.48446,1.00798 -0.57953,1.40351 -0.0945,0.39298 -0.74492,2.41403 -1.44548,4.49122 -1.15178,3.4151 -1.42649,4.10902 -2.86901,7.24721 -0.8774,1.90877 -1.6219,3.50151 -1.65444,3.53942 -0.0326,0.0379 -6.43126,0.0838 -14.21937,0.10207 l -14.160182,0.0332 z m 21.741773,-0.71444 6.12804,-7e-5 1.44546,-3.13876 c 1.2139,-2.63595 1.63641,-3.6947 2.63748,-6.60925 0.65561,-1.90877 1.33251,-3.99872 1.50422,-4.64434 0.25256,-0.94958 0.42178,-1.34935 0.88578,-2.0925 l 0.57358,-0.91866 1.03183,-0.029 1.03182,-0.029 0.10717,0.33521 c 0.0907,0.28368 5.017,16.4976 5.18531,17.06639 0.0567,0.19152 0.32823,0.19406 14.04304,0.13124 7.69188,-0.0352 14.00899,-0.0878 14.03802,-0.11683 0.029,-0.029 0.13474,-4.61249 0.23491,-10.18547 0.10018,-5.57298 0.23594,-10.89058 0.30168,-11.8169 0.11377,-1.60295 0.0993,-1.97281 -0.29931,-7.66593 -0.23037,-3.28994 -0.41886,-6.6695 -0.41886,-7.51014 v -1.52843 l -0.79107,-0.98231 -0.79107,-0.98232 -0.15576,1.24525 -0.15576,1.24525 -0.81393,1.34483 -0.81394,1.34484 -1.83732,1.42013 -1.83732,1.42013 -2.19458,0.72934 c -1.97378,0.65596 -2.8056,0.85849 -8.26794,2.01309 -3.34035,0.70607 -8.16332,1.6718 -10.7177,2.14607 -2.55439,0.47427 -4.71324,0.88208 -4.79745,0.90626 -0.2511,0.0721 1.37747,-0.0462 2.90909,-0.21127 2.49449,-0.26887 6.06453,-0.9311 12.04466,-2.23423 7.11191,-1.54976 10.58721,-2.67086 12.87445,-4.15317 1.55001,-1.00453 2.44767,-1.99885 3.29901,-3.65425 0.76959,-1.49646 0.85478,-1.6134 1.05455,-1.4476 0.6405,0.53157 1.00198,7.74209 1.00388,20.02495 0.001,8.61639 -0.18952,14.411 -0.58415,17.73525 l -0.0636,0.53589 h -13.38731 -13.38731 l -2.2646,-7.52791 c -1.24554,-4.14035 -2.41571,-8.03959 -2.60039,-8.66498 l -0.33578,-1.13706 -0.51091,-0.0614 c -0.281,-0.0338 -0.85667,-0.0618 -1.27927,-0.0623 -1.5382,-0.002 -1.76402,0.37078 -3.96086,6.53443 -1.14813,3.2213 -2.08496,5.62484 -3.30385,8.47642 l -1.05146,2.45986 -11.99362,-0.0498 c -11.52645,-0.0479 -13.574018,-0.10142 -14.071682,-0.36777 -0.138698,-0.0742 -0.205996,-0.26754 -0.254421,-0.73084 -0.206201,-1.97284 -0.310033,-8.13497 -0.31546,-18.72186 -0.0052,-10.21749 0.01582,-11.90273 0.172662,-13.82089 0.09824,-1.20149 0.178628,-2.25792 0.178628,-2.34762 0,-0.0897 0.371353,0.40845 0.82523,1.10702 1.909713,2.93928 4.002573,4.38014 7.852603,5.40626 5.70094,1.51942 17.6438,3.00543 23.75203,2.95538 l 1.71368,-0.014 -2.39873,-0.13117 c -2.94764,-0.16118 -6.6289,-0.56596 -12.96331,-1.4254 -4.4708,-0.6066 -5.12479,-0.72157 -8.39541,-1.47599 -1.95081,-0.44998 -3.60041,-0.81815 -3.6658,-0.81815 -0.0654,0 -0.76591,-0.39099 -1.55674,-0.86888 -1.34745,-0.81423 -1.50561,-0.94422 -2.514906,-2.06698 -1.014743,-1.12882 -2.062375,-2.73322 -2.441185,-3.73858 -0.0611,-0.16217 -0.127602,-0.277 -0.147771,-0.25518 -0.02017,0.0218 -0.231806,0.51177 -0.470303,1.08879 l -0.433634,1.04911 0.09038,2.96779 c 0.08708,2.8593 0.08059,3.0523 -0.177482,5.27944 -0.263008,2.26971 -0.269227,2.47953 -0.342872,11.56793 l -0.07501,9.25629 0.492568,3.2898 0.492569,3.28979 7.403736,-0.0675 c 4.07205,-0.0372 10.16135,-0.0676 13.53177,-0.0676 z m 9.94851,-39.60719 c 1.65614,-0.0545 4.89442,-0.23369 7.19618,-0.39815 4.12017,-0.29438 4.22295,-0.30711 6.63476,-0.82162 1.34737,-0.28743 4.22421,-0.83493 6.39298,-1.21666 l 3.94321,-0.69405 2.69156,-1.25969 c 2.95152,-1.38137 4.36051,-2.17618 4.42669,-2.49713 0.21396,-1.03769 0.71431,-9.15183 0.57907,-9.39075 -0.0318,-0.0561 -0.70822,-0.9748 -1.5032,-2.04147 -1.39071,-1.86599 -1.48259,-2.02052 -2.42755,-4.08293 -0.89993,-1.96414 -1.05006,-2.38702 -1.79384,-5.05263 -1.02887,-3.68741 -1.69581,-7.11528 -2.04153,-10.49286 -0.0477,-0.4658 -0.11266,-0.87289 -0.14441,-0.90464 -0.0318,-0.0317 -0.69178,0.13034 -1.46674,0.36019 l -1.40903,0.4179 -8.06379,0.51445 c -11.82479,0.75438 -23.01394,1.3433 -24.82944,1.30686 l -1.55671,-0.0312 -0.006,0.40829 c -0.0244,1.65763 -0.21479,3.55587 -0.50067,4.9913 -0.26732,1.34229 -0.4992,2.09646 -1.34108,4.3619 -0.98526,2.65127 -1.06717,2.82492 -2.55664,5.42018 -0.84632,1.47464 -2.09625,3.49584 -2.77762,4.49155 -1.11808,1.63389 -1.28115,1.8268 -1.67267,1.97878 l -0.43381,0.1684 0.009,1.08342 c 0.005,0.59588 0.0851,3.07731 0.17863,5.5143 l 0.17005,4.43087 0.71451,0.24293 c 0.39299,0.13361 2.55184,0.70427 4.79745,1.26813 3.94965,0.99173 4.20123,1.04119 7.70654,1.5151 4.05051,0.54762 4.40188,0.56345 9.08453,0.40928 z"
       id="path121170" />
    <path
       style="fill:none;fill-rule:evenodd;stroke:#000000;stroke-width:1px;stroke-linecap:butt;stroke-linejoin:miter;stroke-opacity:1"
       d="m 167.50832,121.47766 3.28405,-2.47205"
       id="path121417"
       inkscape:connector-type="polyline"
       inkscape:connector-curvature="0" />
    <path
       style="fill:none;fill-rule:evenodd;stroke:#000000;stroke-width:1px;stroke-linecap:butt;stroke-linejoin:miter;stroke-opacity:1"
       d="m 165.54179,121.11685 4.70939,-3.62681"
       id="path121419"
       inkscape:connector-type="polyline"
       inkscape:connector-curvature="0" />
    <path
       style="fill:none;fill-rule:evenodd;stroke:#000000;stroke-width:1px;stroke-linecap:butt;stroke-linejoin:miter;stroke-opacity:1"
       d="m 163.15974,121.00858 5.90039,-4.60113"
       id="path121421"
       inkscape:connector-type="polyline"
       inkscape:connector-curvature="0" />
    <path
       style="fill:none;fill-rule:evenodd;stroke:#000000;stroke-width:1px;stroke-linecap:butt;stroke-linejoin:miter;stroke-opacity:1"
       d="m 163.26815,119.22221 3.93342,-2.97737"
       id="path121423"
       inkscape:connector-type="polyline"
       inkscape:connector-curvature="0" />
    <path
       style="fill:none;fill-rule:evenodd;stroke:#000000;stroke-width:1px;stroke-linecap:butt;stroke-linejoin:miter;stroke-opacity:1"
       d="m 164.38661,116.4976 2.1295,-1.56977"
       id="path121427"
       inkscape:connector-type="polyline"
       inkscape:connector-curvature="0" />
    <path
       style="display:inline;fill:none;fill-rule:evenodd;stroke:#000000;stroke-width:1.05908px;stroke-linecap:butt;stroke-linejoin:miter;stroke-opacity:1"
       d="m 107.69973,114.18447 14.93698,4.88668"
       id="path121429"
       inkscape:connector-type="polyline"
       inkscape:connector-curvature="0" />
    <path
       style="fill:none;fill-rule:evenodd;stroke:#000000;stroke-width:1px;stroke-linecap:butt;stroke-linejoin:miter;stroke-opacity:1"
       d="m 122.23884,119.07456 8.75259,0.0511"
       id="path121441"
       inkscape:connector-type="polyline"
       inkscape:connector-curvature="0" />
    <path
       style="fill:none;fill-rule:evenodd;stroke:#000000;stroke-width:1px;stroke-linecap:butt;stroke-linejoin:miter;stroke-opacity:1"
       d="m 130.99143,119.12566 7.42603,-0.20421"
       id="path121443"
       inkscape:connector-type="polyline"
       inkscape:connector-curvature="0" />
    <path
       style="fill:none;fill-rule:evenodd;stroke:#000000;stroke-width:1px;stroke-linecap:butt;stroke-linejoin:miter;stroke-opacity:1"
       d="m 158.94,113.41531 -21.08424,5.63373"
       id="path121445"
       inkscape:connector-type="polyline"
       inkscape:connector-curvature="0" />
    <path
       style="fill:none;fill-rule:evenodd;stroke:#000000;stroke-width:1px;stroke-linecap:butt;stroke-linejoin:miter;stroke-opacity:1"
       d="m 99.389648,195.01489 1.999512,4.06226"
       id="path121605"
       inkscape:connector-type="polyline"
       inkscape:connector-curvature="0" />
    <path
       style="fill:none;fill-rule:evenodd;stroke:#000000;stroke-width:1px;stroke-linecap:butt;stroke-linejoin:miter;stroke-opacity:1"
       d="m 99.951416,192.32739 2.750734,5.62451"
       id="path121607"
       inkscape:connector-type="polyline"
       inkscape:connector-curvature="0" />
    <path
       style="fill:none;fill-rule:evenodd;stroke:#000000;stroke-width:1px;stroke-linecap:butt;stroke-linejoin:miter;stroke-opacity:1"
       d="m 101.1394,190.64014 2.75074,5.62451"
       id="path121609"
       inkscape:connector-type="polyline"
       inkscape:connector-curvature="0" />
    <path
       style="fill:none;fill-rule:evenodd;stroke:#000000;stroke-width:1px;stroke-linecap:butt;stroke-linejoin:miter;stroke-opacity:1"
       d="m 108.86061,185.66991 3.35806,-5.12601"
       id="path121611"
       inkscape:connector-type="polyline"
       inkscape:connector-curvature="0" />
    <path
       style="fill:none;fill-rule:evenodd;stroke:#000000;stroke-width:1px;stroke-linecap:butt;stroke-linejoin:miter;stroke-opacity:1"
       d="m 107.22542,184.69764 3.04906,-3.6676"
       id="path121613"
       inkscape:connector-type="polyline"
       inkscape:connector-curvature="0" />
    <path
       style="fill:none;fill-rule:evenodd;stroke:#000000;stroke-width:1px;stroke-linecap:butt;stroke-linejoin:miter;stroke-opacity:1"
       d="m 147.61873,178.06868 0.57487,8.04334"
       id="path121615"
       inkscape:connector-type="polyline"
       inkscape:connector-curvature="0" />
    <path
       style="fill:none;fill-rule:evenodd;stroke:#000000;stroke-width:1.03386px;stroke-linecap:butt;stroke-linejoin:miter;stroke-opacity:1"
       d="m 148.19877,185.86706 1.22675,6.47866"
       id="path121617"
       inkscape:connector-type="polyline"
       inkscape:connector-curvature="0" />
    <path
       style="fill:none;fill-rule:evenodd;stroke:#000000;stroke-width:1.03957px;stroke-linecap:butt;stroke-linejoin:miter;stroke-opacity:1"
       d="m 149.29479,192.13256 2.63627,4.9742"
       id="path121619"
       inkscape:connector-type="polyline"
       inkscape:connector-curvature="0" />
    <path
       style="fill:none;fill-rule:evenodd;stroke:#000000;stroke-width:1.04225px;stroke-linecap:butt;stroke-linejoin:miter;stroke-opacity:1"
       d="m 151.78938,196.95361 3.28125,3.99382"
       id="path121621"
       inkscape:connector-type="polyline"
       inkscape:connector-curvature="0" />
    <path
       style="fill:none;fill-rule:evenodd;stroke:#000000;stroke-width:1.05102px;stroke-linecap:butt;stroke-linejoin:miter;stroke-opacity:1"
       d="m 154.89254,200.79479 5.02626,3.7138"
       id="path121623"
       inkscape:connector-type="polyline"
       inkscape:connector-curvature="0" />
    <path
       style="fill:none;fill-rule:evenodd;stroke:#000000;stroke-width:1.06099px;stroke-linecap:butt;stroke-linejoin:miter;stroke-opacity:1"
       d="m 117.47649,179.76046 0.0892,3.90312"
       id="path121625"
       inkscape:connector-type="polyline"
       inkscape:connector-curvature="0" />
    <path
       style="fill:none;fill-rule:evenodd;stroke:#000000;stroke-width:1px;stroke-linecap:butt;stroke-linejoin:miter;stroke-opacity:1"
       d="m 117.56621,183.19521 -0.66226,4.06638"
       id="path121627"
       inkscape:connector-type="polyline"
       inkscape:connector-curvature="0" />
    <path
       style="fill:none;fill-rule:evenodd;stroke:#000000;stroke-width:1.02487px;stroke-linecap:butt;stroke-linejoin:miter;stroke-opacity:1"
       d="m 116.89863,187.08498 -1.71294,5.74457"
       id="path121629"
       inkscape:connector-type="polyline"
       inkscape:connector-curvature="0" />
    <path
       style="fill:none;fill-rule:evenodd;stroke:#000000;stroke-width:1.02722px;stroke-linecap:butt;stroke-linejoin:miter;stroke-opacity:1"
       d="m 115.22625,192.70249 -5.37066,10.2369"
       id="path121631"
       inkscape:connector-type="polyline"
       inkscape:connector-curvature="0" />
    <path
       style="fill:none;fill-rule:evenodd;stroke:#000000;stroke-width:1px;stroke-linecap:butt;stroke-linejoin:miter;stroke-opacity:1"
       d="m 110.00931,202.77305 -5.17089,4.3754"
       id="path121633"
       inkscape:connector-type="polyline"
       inkscape:connector-curvature="0" />
    <path
       style="fill:none;fill-rule:evenodd;stroke:#000000;stroke-width:1px;stroke-linecap:butt;stroke-linejoin:miter;stroke-opacity:1"
       d="m 105.5022,131.22303 0.83899,20.19674"
       id="path121737"
       inkscape:connector-type="polyline"
       inkscape:connector-curvature="0" />
    <path
       style="fill:none;fill-rule:evenodd;stroke:#000000;stroke-width:1.03496px;stroke-linecap:butt;stroke-linejoin:miter;stroke-opacity:1"
       d="m 119.16727,176.64255 -2.55868,-4.66526"
       id="path121739"
       inkscape:connector-type="polyline"
       inkscape:connector-curvature="0" />
    <path
       style="display:inline;fill:none;fill-rule:evenodd;stroke:#000000;stroke-width:1px;stroke-linecap:butt;stroke-linejoin:miter;stroke-opacity:1"
       d="m 116.68263,172.19069 -1.67903,-5.87766"
       id="path121741"
       inkscape:connector-type="polyline"
       inkscape:connector-curvature="0" />
    <path
       style="fill:none;fill-rule:evenodd;stroke:#000000;stroke-width:1.02654px;stroke-linecap:butt;stroke-linejoin:miter;stroke-opacity:1"
       d="m 115.00378,166.55777 0.088,-4.4887"
       id="path121743"
       inkscape:connector-type="polyline"
       inkscape:connector-curvature="0" />
    <path
       style="fill:none;fill-rule:evenodd;stroke:#000000;stroke-width:1px;stroke-linecap:butt;stroke-linejoin:miter;stroke-opacity:1"
       d="m 115.092,162.07074 0.16452,-3.62443"
       id="path121745"
       inkscape:connector-type="polyline"
       inkscape:connector-curvature="0" />
    <path
       style="fill:none;fill-rule:evenodd;stroke:#000000;stroke-width:1.03287px;stroke-linecap:butt;stroke-linejoin:miter;stroke-opacity:1"
       d="m 150.78011,138.37373 2.7529,-14.07872"
       id="path121849"
       inkscape:connector-type="polyline"
       inkscape:connector-curvature="0" />
    <path
       style="fill:none;fill-rule:evenodd;stroke:#000000;stroke-width:1px;stroke-linecap:butt;stroke-linejoin:miter;stroke-opacity:1"
       d="m 153.5392,125.23456 -0.24424,-0.69899"
       id="path121851"
       inkscape:connector-type="polyline"
       inkscape:connector-curvature="0" />
  </g>
</svg>
